<svg width="17" height="17" viewBox="0 0 17 17" fill="none" xmlns="http://www.w3.org/2000/svg">
<path fill-rule="evenodd" clip-rule="evenodd" d="M8.5 16.575C12.9597 16.575 16.575 12.9597 16.575 8.5C16.575 4.0403 12.9597 0.425 8.5 0.425C4.0403 0.425 0.425 4.0403 0.425 8.5C0.425 12.9597 4.0403 16.575 8.5 16.575ZM8.5 17C3.80558 17 0 13.1944 0 8.5C0 3.80558 3.80558 0 8.5 0C13.1944 0 17 3.80558 17 8.5C17 13.1944 13.1944 17 8.5 17Z" fill="#CC0000"/>
<path fill-rule="evenodd" clip-rule="evenodd" d="M8.94374 10.6514L9.2418 8.13548V3.6123H7.9668V8.13548L8.24829 10.6514H8.94374ZM9.2418 12.1123H7.9668V13.599H9.2418V12.1123Z" fill="#CC0000"/>
</svg>
