<svg width="26" height="26" viewBox="0 0 26 26" fill="none" xmlns="http://www.w3.org/2000/svg">
<path fill-rule="evenodd" clip-rule="evenodd" d="M7.89753 4.09455V5.19965C7.89753 5.34324 7.78113 5.45965 7.63753 5.45965C7.49394 5.45965 7.37753 5.34324 7.37753 5.19965V4.09455H2.27502C2.20322 4.09455 2.14502 4.15275 2.14502 4.22455V8.35215H23.855V4.22455C23.855 4.15275 23.7968 4.09455 23.725 4.09455H18.135V5.19965C18.135 5.34324 18.0186 5.45965 17.875 5.45965C17.7314 5.45965 17.615 5.34324 17.615 5.19965V4.09455H7.89753ZM18.9719 3.57462H18.135V2.27465C18.135 2.13105 18.0186 2.01465 17.875 2.01465C17.7314 2.01465 17.615 2.13105 17.615 2.27465V3.57462H16.6969H8.73437H7.89753V2.27465C7.89753 2.13105 7.78113 2.01465 7.63753 2.01465C7.49394 2.01465 7.37753 2.13105 7.37753 2.27465V3.57462H6.45937H2.275C1.91601 3.57462 1.625 3.86563 1.625 4.22462V21.7746C1.625 22.1336 1.91601 22.4246 2.275 22.4246H23.725C24.084 22.4246 24.375 22.1336 24.375 21.7746V4.22462C24.375 3.86563 24.084 3.57462 23.725 3.57462H18.9719ZM2.14502 8.87215H23.855V21.7745C23.855 21.8463 23.7968 21.9045 23.725 21.9045H2.27502C2.20322 21.9045 2.14502 21.8463 2.14502 21.7745V8.87215ZM3.9 10.7246V15.2746H8.45V10.7246H3.9ZM4.225 11.0496H8.125V14.9496H4.225V11.0496Z" fill="#056DAE"/>
</svg>
