<svg width="26" height="26" viewBox="0 0 26 26" fill="none" xmlns="http://www.w3.org/2000/svg">
<path fill-rule="evenodd" clip-rule="evenodd" d="M17.5 2.75C17.8797 2.75 18.1935 3.03215 18.2432 3.39823L18.25 3.5V4.75H23.5C24.4182 4.75 25.1712 5.45711 25.2442 6.35647L25.25 6.5V21.5C25.25 22.4182 24.5429 23.1712 23.6435 23.2442L23.5 23.25H2.5C1.58183 23.25 0.828808 22.5429 0.755801 21.6435L0.75 21.5V6.5C0.75 5.58183 1.45711 4.82881 2.35647 4.7558L2.5 4.75H7.75V3.5C7.75 3.08579 8.08579 2.75 8.5 2.75C8.8797 2.75 9.19349 3.03215 9.24315 3.39823L9.25 3.5V4.75H16.75V3.5C16.75 3.08579 17.0858 2.75 17.5 2.75ZM23.75 11.25H2.25V21.5C2.25 21.6183 2.33223 21.7175 2.44268 21.7434L2.5 21.75H23.5C23.6183 21.75 23.7175 21.6678 23.7434 21.5573L23.75 21.5V11.25ZM16.5183 13.958C16.8177 14.2442 16.8283 14.719 16.542 15.0183L13.0033 18.7192C12.3818 19.3913 11.3723 19.4286 10.7126 18.8365L10.5999 18.7254L9.45518 17.5154C9.17051 17.2145 9.18367 16.7398 9.48457 16.4552C9.75811 16.1964 10.1753 16.1837 10.4627 16.4096L10.5448 16.4846L11.6954 17.7008C11.7468 17.7564 11.807 17.7675 11.862 17.7341L11.951 17.6493L15.458 13.9817C15.7442 13.6823 16.219 13.6717 16.5183 13.958ZM7.75 6.25H2.5C2.38165 6.25 2.28251 6.33223 2.2566 6.44268L2.25 6.5V9.75H23.75V6.5C23.75 6.38165 23.6678 6.28251 23.5573 6.2566L23.5 6.25H18.25V7.5C18.25 7.91421 17.9142 8.25 17.5 8.25C17.1203 8.25 16.8065 7.96785 16.7568 7.60177L16.75 7.5V6.25H9.25V7.5C9.25 7.91421 8.91421 8.25 8.5 8.25C8.1203 8.25 7.80651 7.96785 7.75685 7.60177L7.75 7.5V6.25Z" fill="#056DAE"/>
<mask id="mask0" mask-type="alpha" maskUnits="userSpaceOnUse" x="0" y="2" width="26" height="22">
<path fill-rule="evenodd" clip-rule="evenodd" d="M17.5 2.75C17.8797 2.75 18.1935 3.03215 18.2432 3.39823L18.25 3.5V4.75H23.5C24.4182 4.75 25.1712 5.45711 25.2442 6.35647L25.25 6.5V21.5C25.25 22.4182 24.5429 23.1712 23.6435 23.2442L23.5 23.25H2.5C1.58183 23.25 0.828808 22.5429 0.755801 21.6435L0.75 21.5V6.5C0.75 5.58183 1.45711 4.82881 2.35647 4.7558L2.5 4.75H7.75V3.5C7.75 3.08579 8.08579 2.75 8.5 2.75C8.8797 2.75 9.19349 3.03215 9.24315 3.39823L9.25 3.5V4.75H16.75V3.5C16.75 3.08579 17.0858 2.75 17.5 2.75ZM23.75 11.25H2.25V21.5C2.25 21.6183 2.33223 21.7175 2.44268 21.7434L2.5 21.75H23.5C23.6183 21.75 23.7175 21.6678 23.7434 21.5573L23.75 21.5V11.25ZM16.5183 13.958C16.8177 14.2442 16.8283 14.719 16.542 15.0183L13.0033 18.7192C12.3818 19.3913 11.3723 19.4286 10.7126 18.8365L10.5999 18.7254L9.45518 17.5154C9.17051 17.2145 9.18367 16.7398 9.48457 16.4552C9.75811 16.1964 10.1753 16.1837 10.4627 16.4096L10.5448 16.4846L11.6954 17.7008C11.7468 17.7564 11.807 17.7675 11.862 17.7341L11.951 17.6493L15.458 13.9817C15.7442 13.6823 16.219 13.6717 16.5183 13.958ZM7.75 6.25H2.5C2.38165 6.25 2.28251 6.33223 2.2566 6.44268L2.25 6.5V9.75H23.75V6.5C23.75 6.38165 23.6678 6.28251 23.5573 6.2566L23.5 6.25H18.25V7.5C18.25 7.91421 17.9142 8.25 17.5 8.25C17.1203 8.25 16.8065 7.96785 16.7568 7.60177L16.75 7.5V6.25H9.25V7.5C9.25 7.91421 8.91421 8.25 8.5 8.25C8.1203 8.25 7.80651 7.96785 7.75685 7.60177L7.75 7.5V6.25Z" fill="white"/>
</mask>
<g mask="url(#mask0)">
</g>
</svg>
