<svg width="26" height="26" viewBox="0 0 26 26" fill="none" xmlns="http://www.w3.org/2000/svg">
<path fill-rule="evenodd" clip-rule="evenodd" d="M23.5 4.75C24.3972 4.75 25.1651 5.38587 25.2434 6.23834L25.25 6.38235V19.6176C25.25 20.4929 24.5294 21.1748 23.6482 21.2442L23.5 21.25H2.5C1.60279 21.25 0.83492 20.6141 0.756577 19.7617L0.75 19.6176V6.38235C0.75 5.5071 1.47065 4.82517 2.35176 4.75582L2.5 4.75H23.5ZM23.75 10.75H2.25V19.6176C2.25 19.6599 2.31423 19.7237 2.42679 19.7437L2.5 19.75H23.5C23.6313 19.75 23.7174 19.6933 23.7424 19.6451L23.75 19.6176V10.75ZM20.25 13.75C21.3044 13.75 22.1682 14.5659 22.2445 15.6007L22.25 15.75V16.25C22.25 17.3044 21.4341 18.1682 20.3993 18.2445L20.25 18.25H16.75C15.6956 18.25 14.8318 17.4341 14.7555 16.3993L14.75 16.25V15.75C14.75 14.6956 15.5659 13.8318 16.6007 13.7555L16.75 13.75H20.25ZM20.25 15.25H16.75C16.5045 15.25 16.3004 15.4269 16.2581 15.6601L16.25 15.75V16.25C16.25 16.4955 16.4269 16.6996 16.6601 16.7419L16.75 16.75H20.25C20.4955 16.75 20.6996 16.5731 20.7419 16.3399L20.75 16.25V15.75C20.75 15.5045 20.5731 15.3004 20.3399 15.2581L20.25 15.25ZM23.5 6.25H2.5C2.36874 6.25 2.28264 6.30667 2.25758 6.35493L2.25 6.38235V9.25H23.75V6.38235C23.75 6.34006 23.6858 6.27634 23.5732 6.25628L23.5 6.25Z" fill="#5C5F66"/>
<mask id="mask0" mask-type="alpha" maskUnits="userSpaceOnUse" x="0" y="4" width="26" height="18">
<path fill-rule="evenodd" clip-rule="evenodd" d="M23.5 4.75C24.3972 4.75 25.1651 5.38587 25.2434 6.23834L25.25 6.38235V19.6176C25.25 20.4929 24.5294 21.1748 23.6482 21.2442L23.5 21.25H2.5C1.60279 21.25 0.83492 20.6141 0.756577 19.7617L0.75 19.6176V6.38235C0.75 5.5071 1.47065 4.82517 2.35176 4.75582L2.5 4.75H23.5ZM23.75 10.75H2.25V19.6176C2.25 19.6599 2.31423 19.7237 2.42679 19.7437L2.5 19.75H23.5C23.6313 19.75 23.7174 19.6933 23.7424 19.6451L23.75 19.6176V10.75ZM20.25 13.75C21.3044 13.75 22.1682 14.5659 22.2445 15.6007L22.25 15.75V16.25C22.25 17.3044 21.4341 18.1682 20.3993 18.2445L20.25 18.25H16.75C15.6956 18.25 14.8318 17.4341 14.7555 16.3993L14.75 16.25V15.75C14.75 14.6956 15.5659 13.8318 16.6007 13.7555L16.75 13.75H20.25ZM20.25 15.25H16.75C16.5045 15.25 16.3004 15.4269 16.2581 15.6601L16.25 15.75V16.25C16.25 16.4955 16.4269 16.6996 16.6601 16.7419L16.75 16.75H20.25C20.4955 16.75 20.6996 16.5731 20.7419 16.3399L20.75 16.25V15.75C20.75 15.5045 20.5731 15.3004 20.3399 15.2581L20.25 15.25ZM23.5 6.25H2.5C2.36874 6.25 2.28264 6.30667 2.25758 6.35493L2.25 6.38235V9.25H23.75V6.38235C23.75 6.34006 23.6858 6.27634 23.5732 6.25628L23.5 6.25Z" fill="white"/>
</mask>
<g mask="url(#mask0)">
</g>
</svg>
