<svg width="18" height="18" viewBox="0 0 18 18" fill="none" xmlns="http://www.w3.org/2000/svg">
<path fill-rule="evenodd" clip-rule="evenodd" d="M13.0107 15.8936C13.2184 16.0914 13.2264 16.42 13.0287 16.6277C12.8489 16.8165 12.5609 16.8403 12.354 16.6945L12.2946 16.6456L5.17909 9.86877L5.16452 9.85382C4.72916 9.3988 4.71855 8.69269 5.12188 8.22554L5.20235 8.14087L12.2937 1.35598C12.5009 1.15773 12.8296 1.16499 13.0278 1.37219C13.208 1.56055 13.2184 1.84931 13.0631 2.0492L13.0116 2.10631L5.92026 8.8912C5.86271 8.94627 5.85143 9.03153 5.88752 9.09839L5.91486 9.13591L13.0107 15.8936Z" fill="#056DAE"/>
<mask id="mask0" mask-type="alpha" maskUnits="userSpaceOnUse" x="4" y="1" width="10" height="16">
<path fill-rule="evenodd" clip-rule="evenodd" d="M13.0107 15.8936C13.2184 16.0914 13.2264 16.42 13.0287 16.6277C12.8489 16.8165 12.5609 16.8403 12.354 16.6945L12.2946 16.6456L5.17909 9.86877L5.16452 9.85382C4.72916 9.3988 4.71855 8.69269 5.12188 8.22554L5.20235 8.14087L12.2937 1.35598C12.5009 1.15773 12.8296 1.16499 13.0278 1.37219C13.208 1.56055 13.2184 1.84931 13.0631 2.0492L13.0116 2.10631L5.92026 8.8912C5.86271 8.94627 5.85143 9.03153 5.88752 9.09839L5.91486 9.13591L13.0107 15.8936Z" fill="white"/>
</mask>
<g mask="url(#mask0)">
</g>
</svg>
