<svg viewBox="0 0 1232 386" fill="none" xmlns="http://www.w3.org/2000/svg">
<mask id="mask0" mask-type="alpha" maskUnits="userSpaceOnUse" x="166" y="346" width="63" height="40">
<path fill-rule="evenodd" clip-rule="evenodd" d="M229 346H166V386H229V346Z" fill="white"/>
</mask>
<g mask="url(#mask0)">
<path opacity="0.837449" fill-rule="evenodd" clip-rule="evenodd" d="M178.171 359.111C177.852 358.13 177.672 357.087 177.672 356C177.672 350.477 182.134 346 187.639 346C191.591 346 194.995 348.315 196.606 351.664C198.217 348.315 201.622 346 205.575 346C211.078 346 222.856 353.734 225.929 358.856C229.002 363.978 225.03 376 219.526 376C218.84 376 218.171 375.931 217.523 375.798C217.525 375.866 217.533 375.932 217.533 376C217.533 381.523 213.072 386 207.568 386C204.218 386 201.259 384.335 199.453 381.791C197.646 384.335 194.69 386 191.339 386C186.241 386 183.075 384.889 178.171 383.681C173.019 382.412 166 374.38 166 368.857C166 363.333 170.461 358.856 175.965 358.856C176.724 358.856 177.46 358.95 178.171 359.111Z" fill="#B2DAF2"/>
</g>
<mask id="mask1" mask-type="alpha" maskUnits="userSpaceOnUse" x="932" y="120" width="63" height="40">
<path fill-rule="evenodd" clip-rule="evenodd" d="M995 120H932V160H995V120Z" fill="white"/>
</mask>
<g mask="url(#mask1)">
<path opacity="0.837449" fill-rule="evenodd" clip-rule="evenodd" d="M943.972 133.111C943.657 132.13 943.481 131.087 943.481 130C943.481 124.477 947.87 120 953.284 120C957.172 120 960.52 122.315 962.104 125.664C963.689 122.315 967.038 120 970.926 120C976.339 120 987.924 127.734 990.946 132.856C993.969 137.978 990.062 150 984.649 150C983.974 150 983.316 149.931 982.678 149.798C982.68 149.866 982.688 149.932 982.688 150C982.688 155.523 978.3 160 972.886 160C969.591 160 966.681 158.335 964.905 155.791C963.128 158.335 960.219 160 956.924 160C951.91 160 948.795 158.889 943.972 157.681C938.904 156.412 932 148.38 932 142.857C932 137.333 936.388 132.856 941.802 132.856C942.549 132.856 943.272 132.95 943.972 133.111Z" fill="#B2DAF2"/>
</g>
<g opacity="0.252581">
<mask id="mask2" mask-type="alpha" maskUnits="userSpaceOnUse" x="1141" y="26" width="43" height="27">
<path fill-rule="evenodd" clip-rule="evenodd" d="M1184 26H1141V53H1184V26Z" fill="white"/>
</mask>
<g mask="url(#mask2)">
<path opacity="0.837449" fill-rule="evenodd" clip-rule="evenodd" d="M1149.18 34.8497C1148.97 34.1881 1148.85 33.4837 1148.85 32.7503C1148.85 29.0219 1151.84 26 1155.54 26C1158.2 26 1160.49 27.563 1161.57 29.8229C1162.65 27.563 1164.94 26 1167.6 26C1171.3 26 1179.21 31.2207 1181.28 34.6781C1183.35 38.1355 1180.68 46.2503 1176.98 46.2503C1176.52 46.2503 1176.07 46.2033 1175.63 46.1135C1175.63 46.1594 1175.64 46.2043 1175.64 46.2503C1175.64 49.9781 1172.64 53 1168.94 53C1166.69 53 1164.7 51.8764 1163.48 50.1587C1162.27 51.8764 1160.28 53 1158.03 53C1154.6 53 1152.48 52.2501 1149.18 51.4347C1145.72 50.578 1141 45.1562 1141 41.4283C1141 37.7 1144 34.6781 1147.7 34.6781C1148.21 34.6781 1148.7 34.7409 1149.18 34.8497Z" fill="#349EE0"/>
</g>
</g>
<g opacity="0.580497">
<mask id="mask3" mask-type="alpha" maskUnits="userSpaceOnUse" x="374" y="0" width="80" height="51">
<path fill-rule="evenodd" clip-rule="evenodd" d="M454 0H374V51H454V0Z" fill="white"/>
</mask>
<g mask="url(#mask3)">
<path opacity="0.285273" fill-rule="evenodd" clip-rule="evenodd" d="M389.364 16.7161C388.96 15.4664 388.734 14.1359 388.734 12.7505C388.734 5.708 394.366 0 401.315 0C406.304 0 410.601 2.95224 412.633 7.22103C414.667 2.95224 418.965 0 423.955 0C430.902 0 445.769 9.86133 449.648 16.3919C453.527 22.9225 448.513 38.2505 441.566 38.2505C440.7 38.2505 439.855 38.1617 439.037 37.9922C439.039 38.0789 439.05 38.1637 439.05 38.2505C439.05 45.292 433.419 51 426.471 51C422.242 51 418.508 48.8776 416.228 45.6331C413.947 48.8776 410.215 51 405.986 51C399.551 51 395.554 49.5834 389.364 48.0433C382.86 46.4251 374 36.1839 374 29.1424C374 22.0999 379.631 16.3919 386.579 16.3919C387.537 16.3919 388.466 16.5106 389.364 16.7161Z" fill="#349EE0"/>
</g>
</g>
<g opacity="0.319475">
<mask id="mask4" mask-type="alpha" maskUnits="userSpaceOnUse" x="0" y="23" width="44" height="28">
<path fill-rule="evenodd" clip-rule="evenodd" d="M44 23H0V51H44V23Z" fill="white"/>
</mask>
<g mask="url(#mask4)">
<path opacity="0.837449" fill-rule="evenodd" clip-rule="evenodd" d="M8.38017 32.1775C8.16012 31.4913 8.03668 30.7609 8.03668 30.0003C8.03668 26.1338 11.1088 23 14.899 23C17.6202 23 19.964 24.6208 21.0728 26.9645C22.1822 24.6208 24.5265 23 27.2482 23C31.0373 23 39.1466 28.4141 41.2623 31.9995C43.3781 35.5849 40.6434 44.0003 36.8542 44.0003C36.3819 44.0003 35.9209 43.9515 35.4748 43.8584C35.4759 43.9061 35.4818 43.9526 35.4818 44.0003C35.4818 47.8662 32.4102 51 28.6205 51C26.3138 51 24.277 49.8347 23.0334 48.0535C21.7893 49.8347 19.7536 51 17.4468 51C13.9367 51 11.7565 50.2223 8.38017 49.3767C4.83253 48.4883 0 42.8657 0 38.9998C0 35.1333 3.07158 31.9995 6.86129 31.9995C7.38404 31.9995 7.89069 32.0647 8.38017 32.1775Z" fill="#349EE0"/>
</g>
</g>
<mask id="mask5" mask-type="alpha" maskUnits="userSpaceOnUse" x="1136" y="299" width="96" height="61">
<path fill-rule="evenodd" clip-rule="evenodd" d="M1232 299H1136V360H1232V299Z" fill="white"/>
</mask>
<g mask="url(#mask5)">
<path opacity="0.179013" fill-rule="evenodd" clip-rule="evenodd" d="M1154.16 318.994C1153.68 317.499 1153.41 315.908 1153.41 314.251C1153.41 305.827 1160.07 299 1168.28 299C1174.18 299 1179.26 302.531 1181.66 307.637C1184.06 302.531 1189.14 299 1195.04 299C1203.25 299 1220.82 310.795 1225.4 318.606C1229.99 326.417 1224.06 344.751 1215.85 344.751C1214.83 344.751 1213.83 344.644 1212.86 344.442C1212.86 344.545 1212.88 344.647 1212.88 344.751C1212.88 353.173 1206.22 360 1198.01 360C1193.01 360 1188.6 357.461 1185.91 353.581C1183.21 357.461 1178.8 360 1173.8 360C1166.2 360 1161.47 358.306 1154.16 356.464C1146.47 354.528 1136 342.279 1136 333.857C1136 325.433 1142.66 318.606 1150.87 318.606C1152 318.606 1153.1 318.748 1154.16 318.994Z" fill="#349EE0"/>
</g>
</svg>
