<svg width="23" height="23" viewBox="0 0 23 23" fill="none" xmlns="http://www.w3.org/2000/svg">
<path fill-rule="evenodd" clip-rule="evenodd" d="M18.1337 0.664062C18.9459 0.664062 19.6121 1.28958 19.6767 2.08517L19.6818 2.21214L19.6812 18.1657L19.6689 18.2658C19.6589 18.316 19.6433 18.3638 19.6229 18.4089L19.5829 18.4838L19.5288 18.5591L19.4636 18.6271L19.4104 18.6705L19.3358 18.7179L19.2878 18.7415L11.3262 22.28C11.2699 22.3048 11.211 22.322 11.15 22.3306L11.0691 22.3372L4.86448 22.3371C4.05225 22.3371 3.38612 21.7116 3.32154 20.916L3.31641 20.7891V2.21214C3.31641 1.39991 3.94193 0.733777 4.73752 0.669194L4.86448 0.664062H18.1337ZM18.1337 1.99099H4.86448C4.75979 1.99099 4.67209 2.06373 4.64917 2.16143L4.64333 2.21214V20.7891C4.64333 20.8938 4.71607 20.9815 4.81377 21.0044L4.86448 21.0102H10.3933V19.0198C10.3933 18.2527 10.9513 17.6159 11.6835 17.4931L11.8144 17.4769L11.9414 17.4718H18.3549V2.21214C18.3549 2.12839 18.3083 2.05551 18.2397 2.01797L18.1844 1.99683L18.1337 1.99099ZM15.8903 18.7987H11.9414C11.8367 18.7987 11.749 18.8714 11.7261 18.9691L11.7203 19.0198V20.6519L15.8903 18.7987ZM16.8068 12.1641C17.1732 12.1641 17.4703 12.4611 17.4703 12.8275C17.4703 13.1634 17.2207 13.441 16.8968 13.4849L16.8068 13.491H15.9222C15.5558 13.491 15.2587 13.1939 15.2587 12.8275C15.2587 12.4916 15.5083 12.2141 15.8321 12.1701L15.9222 12.1641H16.8068ZM13.2683 12.1641C13.6347 12.1641 13.9318 12.4611 13.9318 12.8275C13.9318 13.1634 13.6822 13.441 13.3584 13.4849L13.2683 13.491H6.19141C5.82499 13.491 5.52794 13.1939 5.52794 12.8275C5.52794 12.4916 5.77754 12.2141 6.10138 12.1701L6.19141 12.1641H13.2683ZM16.8068 8.6256C17.1732 8.6256 17.4703 8.92264 17.4703 9.28906C17.4703 9.62495 17.2207 9.90254 16.8968 9.94647L16.8068 9.95252H15.9222C15.5558 9.95252 15.2587 9.65548 15.2587 9.28906C15.2587 8.95318 15.5083 8.67559 15.8321 8.63166L15.9222 8.6256H16.8068ZM13.2683 8.6256C13.6347 8.6256 13.9318 8.92264 13.9318 9.28906C13.9318 9.62495 13.6822 9.90254 13.3584 9.94647L13.2683 9.95252H6.19141C5.82499 9.95252 5.52794 9.65548 5.52794 9.28906C5.52794 8.95318 5.77754 8.67559 6.10138 8.63166L6.19141 8.6256H13.2683ZM16.8068 5.08714C17.1732 5.08714 17.4703 5.38418 17.4703 5.7506C17.4703 6.08649 17.2207 6.36407 16.8968 6.40801L16.8068 6.41406H15.9222C15.5558 6.41406 15.2587 6.11702 15.2587 5.7506C15.2587 5.41472 15.5083 5.13713 15.8321 5.0932L15.9222 5.08714H16.8068ZM13.2683 5.08714C13.6347 5.08714 13.9318 5.38418 13.9318 5.7506C13.9318 6.08649 13.6822 6.36407 13.3584 6.40801L13.2683 6.41406H6.19141C5.82499 6.41406 5.52794 6.11702 5.52794 5.7506C5.52794 5.41472 5.77754 5.13713 6.10138 5.0932L6.19141 5.08714H13.2683Z" fill="#5C5F66"/>
<mask id="mask0" mask-type="alpha" maskUnits="userSpaceOnUse" x="3" y="0" width="17" height="23">
<path fill-rule="evenodd" clip-rule="evenodd" d="M18.1337 0.664062C18.9459 0.664062 19.6121 1.28958 19.6767 2.08517L19.6818 2.21214L19.6812 18.1657L19.6689 18.2658C19.6589 18.316 19.6433 18.3638 19.6229 18.4089L19.5829 18.4838L19.5288 18.5591L19.4636 18.6271L19.4104 18.6705L19.3358 18.7179L19.2878 18.7415L11.3262 22.28C11.2699 22.3048 11.211 22.322 11.15 22.3306L11.0691 22.3372L4.86448 22.3371C4.05225 22.3371 3.38612 21.7116 3.32154 20.916L3.31641 20.7891V2.21214C3.31641 1.39991 3.94193 0.733777 4.73752 0.669194L4.86448 0.664062H18.1337ZM18.1337 1.99099H4.86448C4.75979 1.99099 4.67209 2.06373 4.64917 2.16143L4.64333 2.21214V20.7891C4.64333 20.8938 4.71607 20.9815 4.81377 21.0044L4.86448 21.0102H10.3933V19.0198C10.3933 18.2527 10.9513 17.6159 11.6835 17.4931L11.8144 17.4769L11.9414 17.4718H18.3549V2.21214C18.3549 2.12839 18.3083 2.05551 18.2397 2.01797L18.1844 1.99683L18.1337 1.99099ZM15.8903 18.7987H11.9414C11.8367 18.7987 11.749 18.8714 11.7261 18.9691L11.7203 19.0198V20.6519L15.8903 18.7987ZM16.8068 12.1641C17.1732 12.1641 17.4703 12.4611 17.4703 12.8275C17.4703 13.1634 17.2207 13.441 16.8968 13.4849L16.8068 13.491H15.9222C15.5558 13.491 15.2587 13.1939 15.2587 12.8275C15.2587 12.4916 15.5083 12.2141 15.8321 12.1701L15.9222 12.1641H16.8068ZM13.2683 12.1641C13.6347 12.1641 13.9318 12.4611 13.9318 12.8275C13.9318 13.1634 13.6822 13.441 13.3584 13.4849L13.2683 13.491H6.19141C5.82499 13.491 5.52794 13.1939 5.52794 12.8275C5.52794 12.4916 5.77754 12.2141 6.10138 12.1701L6.19141 12.1641H13.2683ZM16.8068 8.6256C17.1732 8.6256 17.4703 8.92264 17.4703 9.28906C17.4703 9.62495 17.2207 9.90254 16.8968 9.94647L16.8068 9.95252H15.9222C15.5558 9.95252 15.2587 9.65548 15.2587 9.28906C15.2587 8.95318 15.5083 8.67559 15.8321 8.63166L15.9222 8.6256H16.8068ZM13.2683 8.6256C13.6347 8.6256 13.9318 8.92264 13.9318 9.28906C13.9318 9.62495 13.6822 9.90254 13.3584 9.94647L13.2683 9.95252H6.19141C5.82499 9.95252 5.52794 9.65548 5.52794 9.28906C5.52794 8.95318 5.77754 8.67559 6.10138 8.63166L6.19141 8.6256H13.2683ZM16.8068 5.08714C17.1732 5.08714 17.4703 5.38418 17.4703 5.7506C17.4703 6.08649 17.2207 6.36407 16.8968 6.40801L16.8068 6.41406H15.9222C15.5558 6.41406 15.2587 6.11702 15.2587 5.7506C15.2587 5.41472 15.5083 5.13713 15.8321 5.0932L15.9222 5.08714H16.8068ZM13.2683 5.08714C13.6347 5.08714 13.9318 5.38418 13.9318 5.7506C13.9318 6.08649 13.6822 6.36407 13.3584 6.40801L13.2683 6.41406H6.19141C5.82499 6.41406 5.52794 6.11702 5.52794 5.7506C5.52794 5.41472 5.77754 5.13713 6.10138 5.0932L6.19141 5.08714H13.2683Z" fill="white"/>
</mask>
<g mask="url(#mask0)">
</g>
</svg>
