<svg width="17" height="17" viewBox="0 0 17 17" fill="none" xmlns="http://www.w3.org/2000/svg">
<path d="M0.112676 15.8998H13.2" stroke="#056DAE" stroke-linecap="round" stroke-linejoin="round"/>
<path d="M15.7996 4.40022L16.1532 4.75378C16.1699 4.73705 16.1854 4.71915 16.1996 4.70022L15.7996 4.40022ZM14.9996 5.20022L15.3532 5.55378L14.9996 5.20022ZM12.3996 1.00022L12.7532 1.35378V1.35378L12.3996 1.00022ZM11.5996 1.80022L11.2461 1.44667V1.44667L11.5996 1.80022ZM10.6995 2.09312L11.0531 1.73956C10.9593 1.6458 10.8321 1.59312 10.6995 1.59312C10.5669 1.59312 10.4398 1.6458 10.346 1.73956L10.6995 2.09312ZM9.99243 2.80022L9.63888 2.44667C9.44361 2.64193 9.44361 2.95852 9.63888 3.15378L9.99243 2.80022ZM10.2959 3.10373L10.6495 3.45728C10.8447 3.26202 10.8447 2.94544 10.6495 2.75017L10.2959 3.10373ZM3.39944 10.0002L3.04589 9.64666C2.98646 9.70609 2.94298 9.77954 2.91944 9.86022L3.39944 10.0002ZM2.51003 13.0496L2.03003 12.9096H2.03003L2.51003 13.0496ZM3.75003 14.2896L3.61003 13.8096H3.61003L3.75003 14.2896ZM6.79944 13.4002L6.93944 13.8802C7.02012 13.8567 7.09357 13.8132 7.153 13.7538L6.79944 13.4002ZM13.6959 6.50373L14.0495 6.15018C13.8542 5.95491 13.5376 5.95491 13.3424 6.15018L13.6959 6.50373ZM13.9995 6.80733L13.646 7.16089C13.8412 7.35615 14.1578 7.35615 14.3531 7.16088L13.9995 6.80733ZM14.7066 6.10022L15.0602 6.45378C15.2555 6.25852 15.2555 5.94193 15.0602 5.74667L14.7066 6.10022ZM13.9996 6.20022L13.6461 6.55378C13.8413 6.74904 14.1579 6.74904 14.3532 6.55378L13.9996 6.20022ZM10.5996 2.80022L10.2461 2.44667C10.1523 2.54044 10.0996 2.66762 10.0996 2.80022C10.0996 2.93283 10.1523 3.06001 10.2461 3.15378L10.5996 2.80022ZM11.0531 2.44667L11.4066 2.09312L11.4066 2.09312L11.0531 2.44667ZM14.3531 5.74667L13.9995 6.10022L13.9995 6.10023L14.3531 5.74667ZM15.4461 4.04667L14.6461 4.84667L15.3532 5.55378L16.1532 4.75378L15.4461 4.04667ZM12.7532 1.35378C12.6481 1.45882 12.5493 1.41137 12.6389 1.43036C12.7137 1.44623 12.8408 1.49597 13.0177 1.59848C13.3649 1.79961 13.7948 2.13936 14.2014 2.53401C14.6083 2.92893 14.964 3.35179 15.178 3.70581C15.2863 3.88495 15.3426 4.02084 15.3627 4.10978C15.3838 4.20367 15.3497 4.16684 15.3996 4.10022L16.1996 4.70022C16.3996 4.43361 16.3905 4.12178 16.3382 3.88988C16.2848 3.65305 16.1692 3.41238 16.0338 3.18839C15.7603 2.73616 15.341 2.24652 14.8979 1.81643C14.4545 1.38609 13.9594 0.98834 13.519 0.733214C13.3022 0.607603 13.0699 0.499529 12.8463 0.452115C12.6375 0.407832 12.3011 0.391625 12.0461 0.646671L12.7532 1.35378ZM11.9532 2.15378L12.7532 1.35378L12.0461 0.646671L11.2461 1.44667L11.9532 2.15378ZM11.3567 2.75028L11.9532 2.15378L11.2461 1.44667L10.6496 2.04317L11.3567 2.75028ZM11.3567 2.04317L11.0531 1.73956L10.346 2.44667L10.6496 2.75028L11.3567 2.04317ZM10.346 1.73956L9.63888 2.44667L10.346 3.15378L11.0531 2.44667L10.346 1.73956ZM9.63888 3.15378L9.94238 3.45728L10.6495 2.75017L10.346 2.44667L9.63888 3.15378ZM9.94238 2.75017L3.04589 9.64666L3.753 10.3538L10.6495 3.45728L9.94238 2.75017ZM2.91944 9.86022L2.03003 12.9096L2.99003 13.1896L3.87944 10.1402L2.91944 9.86022ZM2.03003 12.9096C1.69845 14.0465 2.75319 15.1012 3.89003 14.7696L3.61003 13.8096C3.23108 13.9202 2.87951 13.5686 2.99003 13.1896L2.03003 12.9096ZM3.89003 14.7696L6.93944 13.8802L6.65944 12.9202L3.61003 13.8096L3.89003 14.7696ZM7.153 13.7538L14.0495 6.85728L13.3424 6.15018L6.44589 13.0467L7.153 13.7538ZM13.3424 6.85728L13.646 7.16089L14.3531 6.45378L14.0495 6.15018L13.3424 6.85728ZM14.3531 7.16088L15.0602 6.45378L14.3531 5.74667L13.646 6.45378L14.3531 7.16088ZM15.0602 5.74667L14.7567 5.44317L14.0496 6.15027L14.3531 6.45378L15.0602 5.74667ZM14.6461 4.84667L14.0496 5.44317L14.7567 6.15027L15.3532 5.55378L14.6461 4.84667ZM14.0496 5.44317L13.6461 5.84667L14.3532 6.55378L14.7567 6.15028L14.0496 5.44317ZM14.3532 5.84667L10.9532 2.44667L10.2461 3.15378L13.6461 6.55378L14.3532 5.84667ZM10.9532 3.15378L11.3567 2.75028L10.6496 2.04317L10.2461 2.44667L10.9532 3.15378ZM11.4066 2.09312L11.3567 2.04317L10.6496 2.75028L10.6995 2.80023L11.4066 2.09312ZM14.7066 5.39312L11.4066 2.09312L10.6995 2.80022L13.9995 6.10022L14.7066 5.39312ZM14.7567 5.44317L14.7066 5.39312L13.9995 6.10023L14.0496 6.15028L14.7567 5.44317Z" fill="#056DAE"/>
</svg>
