<svg width="25" height="25" viewBox="0 0 25 25" fill="none" xmlns="http://www.w3.org/2000/svg">
<path fill-rule="evenodd" clip-rule="evenodd" d="M16.3817 11.9394L23.6716 18.9309V6.05876L16.3817 11.9394ZM9.41856 12.5784L2.06337 19.6095H22.9121L15.5844 12.5824L13.7359 14.0744C13.1011 14.5416 11.9598 14.5314 11.2457 14.059L9.41856 12.5784ZM13.1154 13.2699L22.8816 5.3904H2.16204L11.8439 13.2402C12.174 13.4576 12.8525 13.4628 13.1154 13.2699ZM1.32804 6.02196V18.9077L8.62235 11.9341L1.32804 6.02196ZM23.0107 4.375C23.9265 4.375 24.6875 5.08395 24.6875 5.9715V19.0296C24.6875 19.9172 23.9265 20.625 23.0107 20.625H1.98819C1.07314 20.625 0.3125 19.9172 0.3125 19.0296V5.9715C0.3125 5.08395 1.07314 4.375 1.98819 4.375H23.0107Z" fill="#5C5F66"/>
<mask id="mask0" mask-type="alpha" maskUnits="userSpaceOnUse" x="0" y="4" width="25" height="17">
<path fill-rule="evenodd" clip-rule="evenodd" d="M16.3817 11.9394L23.6716 18.9309V6.05876L16.3817 11.9394ZM9.41856 12.5784L2.06337 19.6095H22.9121L15.5844 12.5824L13.7359 14.0744C13.1011 14.5416 11.9598 14.5314 11.2457 14.059L9.41856 12.5784ZM13.1154 13.2699L22.8816 5.3904H2.16204L11.8439 13.2402C12.174 13.4576 12.8525 13.4628 13.1154 13.2699ZM1.32804 6.02196V18.9077L8.62235 11.9341L1.32804 6.02196ZM23.0107 4.375C23.9265 4.375 24.6875 5.08395 24.6875 5.9715V19.0296C24.6875 19.9172 23.9265 20.625 23.0107 20.625H1.98819C1.07314 20.625 0.3125 19.9172 0.3125 19.0296V5.9715C0.3125 5.08395 1.07314 4.375 1.98819 4.375H23.0107Z" fill="white"/>
</mask>
<g mask="url(#mask0)">
</g>
</svg>
