<svg width="30" height="30" viewBox="0 0 30 30" fill="none" xmlns="http://www.w3.org/2000/svg">
<path fill-rule="evenodd" clip-rule="evenodd" d="M15 1.25C22.5939 1.25 28.75 7.40608 28.75 15C28.75 22.5939 22.5939 28.75 15 28.75C7.40608 28.75 1.25 22.5939 1.25 15C1.25 7.40608 7.40608 1.25 15 1.25ZM8.68276 7.37131C8.31575 7.099 7.79492 7.12925 7.46209 7.46209C7.12925 7.79492 7.099 8.31575 7.37131 8.68276L7.46209 8.78791L13.6737 15L7.46209 21.2121L7.37131 21.3172C7.099 21.6842 7.12925 22.2051 7.46209 22.5379C7.79492 22.8707 8.31575 22.901 8.68276 22.6287L8.78791 22.5379L15 16.3263L21.2121 22.5379L21.3172 22.6287C21.6842 22.901 22.2051 22.8707 22.5379 22.5379C22.8707 22.2051 22.901 21.6842 22.6287 21.3172L22.5379 21.2121L16.3263 15L22.5379 8.78791L22.6287 8.68276C22.901 8.31575 22.8707 7.79492 22.5379 7.46209C22.2051 7.12925 21.6842 7.099 21.3172 7.37131L21.2121 7.46209L15 13.6737L8.78791 7.46209L8.68276 7.37131Z" fill="#333333"/>
<mask id="mask0" mask-type="alpha" maskUnits="userSpaceOnUse" x="1" y="1" width="28" height="28">
<path fill-rule="evenodd" clip-rule="evenodd" d="M15 1.25C22.5939 1.25 28.75 7.40608 28.75 15C28.75 22.5939 22.5939 28.75 15 28.75C7.40608 28.75 1.25 22.5939 1.25 15C1.25 7.40608 7.40608 1.25 15 1.25ZM8.68276 7.37131C8.31575 7.099 7.79492 7.12925 7.46209 7.46209C7.12925 7.79492 7.099 8.31575 7.37131 8.68276L7.46209 8.78791L13.6737 15L7.46209 21.2121L7.37131 21.3172C7.099 21.6842 7.12925 22.2051 7.46209 22.5379C7.79492 22.8707 8.31575 22.901 8.68276 22.6287L8.78791 22.5379L15 16.3263L21.2121 22.5379L21.3172 22.6287C21.6842 22.901 22.2051 22.8707 22.5379 22.5379C22.8707 22.2051 22.901 21.6842 22.6287 21.3172L22.5379 21.2121L16.3263 15L22.5379 8.78791L22.6287 8.68276C22.901 8.31575 22.8707 7.79492 22.5379 7.46209C22.2051 7.12925 21.6842 7.099 21.3172 7.37131L21.2121 7.46209L15 13.6737L8.78791 7.46209L8.68276 7.37131Z" fill="white"/>
</mask>
<g mask="url(#mask0)">
<rect width="30" height="30" fill="#056DAE"/>
</g>
</svg>
