<svg width="44" height="44" viewBox="0 0 44 44" fill="none" xmlns="http://www.w3.org/2000/svg">
<path fill-rule="evenodd" clip-rule="evenodd" d="M19.6922 2.33091C20.896 1.12717 22.8061 1.0603 24.0883 2.13028L24.3078 2.33091L41.6691 19.6922C42.8728 20.896 42.9397 22.8061 41.8697 24.0883L41.6691 24.3078L24.3078 41.6691C23.104 42.8728 21.1939 42.9397 19.9117 41.8697L19.6922 41.6691L2.33091 24.3078C1.12717 23.104 1.0603 21.1939 2.13028 19.9117L2.33091 19.6922L19.6922 2.33091ZM22.3632 4.27545C22.1961 4.10828 21.9423 4.08042 21.7463 4.19187L21.6368 4.27545L4.27545 21.6368C4.10828 21.804 4.08042 22.0577 4.19187 22.2537L4.27545 22.3632L21.6368 39.7246C21.804 39.8917 22.0577 39.9196 22.2537 39.8081L22.3632 39.7246L39.7246 22.3632C39.8917 22.1961 39.9196 21.9423 39.8081 21.7463L39.7246 21.6368L22.3632 4.27545ZM22 30.7083C22.7594 30.7083 23.375 31.3239 23.375 32.0833C23.375 32.8427 22.7594 33.4583 22 33.4583C21.2406 33.4583 20.625 32.8427 20.625 32.0833C20.625 31.3239 21.2406 30.7083 22 30.7083ZM22 10.5417C22.6007 10.5417 23.1204 10.9293 23.3084 11.5104L23.3584 11.711L23.375 11.9167L23.3749 20.2015L23.3243 22.1743C23.2297 25.3327 23.1005 26.9646 22.895 27.3469C22.6893 27.7293 22.3854 27.9583 22 27.9583C21.625 27.9583 21.3394 27.7258 21.1287 27.3573C20.8804 26.9231 20.7398 24.8547 20.6376 20.7034L20.625 20.1736V11.9167C20.625 11.1573 21.2406 10.5417 22 10.5417Z" fill="#CC0000"/>
<mask id="mask0" mask-type="alpha" maskUnits="userSpaceOnUse" x="1" y="1" width="42" height="42">
<path fill-rule="evenodd" clip-rule="evenodd" d="M19.6922 2.33091C20.896 1.12717 22.8061 1.0603 24.0883 2.13028L24.3078 2.33091L41.6691 19.6922C42.8728 20.896 42.9397 22.8061 41.8697 24.0883L41.6691 24.3078L24.3078 41.6691C23.104 42.8728 21.1939 42.9397 19.9117 41.8697L19.6922 41.6691L2.33091 24.3078C1.12717 23.104 1.0603 21.1939 2.13028 19.9117L2.33091 19.6922L19.6922 2.33091ZM22.3632 4.27545C22.1961 4.10828 21.9423 4.08042 21.7463 4.19187L21.6368 4.27545L4.27545 21.6368C4.10828 21.804 4.08042 22.0577 4.19187 22.2537L4.27545 22.3632L21.6368 39.7246C21.804 39.8917 22.0577 39.9196 22.2537 39.8081L22.3632 39.7246L39.7246 22.3632C39.8917 22.1961 39.9196 21.9423 39.8081 21.7463L39.7246 21.6368L22.3632 4.27545ZM22 30.7083C22.7594 30.7083 23.375 31.3239 23.375 32.0833C23.375 32.8427 22.7594 33.4583 22 33.4583C21.2406 33.4583 20.625 32.8427 20.625 32.0833C20.625 31.3239 21.2406 30.7083 22 30.7083ZM22 10.5417C22.6007 10.5417 23.1204 10.9293 23.3084 11.5104L23.3584 11.711L23.375 11.9167L23.3749 20.2015L23.3243 22.1743C23.2297 25.3327 23.1005 26.9646 22.895 27.3469C22.6893 27.7293 22.3854 27.9583 22 27.9583C21.625 27.9583 21.3394 27.7258 21.1287 27.3573C20.8804 26.9231 20.7398 24.8547 20.6376 20.7034L20.625 20.1736V11.9167C20.625 11.1573 21.2406 10.5417 22 10.5417Z" fill="white"/>
</mask>
<g mask="url(#mask0)">
</g>
</svg>
