<svg width="48" height="48" viewBox="0 0 48 48" fill="none" xmlns="http://www.w3.org/2000/svg">
<path fill-rule="evenodd" clip-rule="evenodd" d="M26.373 1.42078L26.6225 1.64876L46.3512 21.3775C47.7191 22.7454 47.7951 24.916 46.5792 26.373L46.3512 26.6225L26.6225 46.3512C25.2546 47.7191 23.084 47.7951 21.627 46.5792L21.3775 46.3512L1.64876 26.6225C0.280878 25.2546 0.204885 23.084 1.42078 21.627L1.64876 21.3775L21.3775 1.64876C22.7454 0.280878 24.916 0.204885 26.373 1.42078ZM24 33.8958C23.1371 33.8958 22.4375 34.5954 22.4375 35.4583C22.4375 36.3213 23.1371 37.0208 24 37.0208C24.8629 37.0208 25.5625 36.3213 25.5625 35.4583C25.5625 34.5954 24.8629 33.8958 24 33.8958ZM22.4518 12.3296C22.5552 11.567 23.209 10.9792 24 10.9792C24.6826 10.9792 25.2732 11.4197 25.4868 12.08L25.5436 12.3079L25.5625 12.5417L25.5624 21.9563L25.4876 24.7504C25.3817 27.9784 25.2383 29.6645 25.017 30.076C24.7833 30.5106 24.4379 30.7708 24 30.7708C23.5738 30.7708 23.2493 30.5066 23.0099 30.0878C22.7646 29.6588 22.6117 27.8256 22.4997 24.2529L22.4375 21.9246V12.5417L22.4518 12.3296Z" fill="#333333"/>
<mask id="mask0" style="mask-type:alpha" maskUnits="userSpaceOnUse" x="0" y="0" width="48" height="48">
<path fill-rule="evenodd" clip-rule="evenodd" d="M26.373 1.42078L26.6225 1.64876L46.3512 21.3775C47.7191 22.7454 47.7951 24.916 46.5792 26.373L46.3512 26.6225L26.6225 46.3512C25.2546 47.7191 23.084 47.7951 21.627 46.5792L21.3775 46.3512L1.64876 26.6225C0.280878 25.2546 0.204885 23.084 1.42078 21.627L1.64876 21.3775L21.3775 1.64876C22.7454 0.280878 24.916 0.204885 26.373 1.42078ZM24 33.8958C23.1371 33.8958 22.4375 34.5954 22.4375 35.4583C22.4375 36.3213 23.1371 37.0208 24 37.0208C24.8629 37.0208 25.5625 36.3213 25.5625 35.4583C25.5625 34.5954 24.8629 33.8958 24 33.8958ZM22.4518 12.3296C22.5552 11.567 23.209 10.9792 24 10.9792C24.6826 10.9792 25.2732 11.4197 25.4868 12.08L25.5436 12.3079L25.5625 12.5417L25.5624 21.9563L25.4876 24.7504C25.3817 27.9784 25.2383 29.6645 25.017 30.076C24.7833 30.5106 24.4379 30.7708 24 30.7708C23.5738 30.7708 23.2493 30.5066 23.0099 30.0878C22.7646 29.6588 22.6117 27.8256 22.4997 24.2529L22.4375 21.9246V12.5417L22.4518 12.3296Z" fill="white"/>
</mask>
<g mask="url(#mask0)">
<rect x="-1" y="-1" width="50" height="50" fill="#FF8C19"/>
</g>
</svg>
