<svg width="46" height="45" viewBox="0 0 46 45" fill="none" xmlns="http://www.w3.org/2000/svg">
<path fill-rule="evenodd" clip-rule="evenodd" d="M22.8979 44.778C35.2064 44.778 45.1844 34.8204 45.1844 22.537C45.1844 10.2536 35.2064 0.295898 22.8979 0.295898C10.5894 0.295898 0.611328 10.2536 0.611328 22.537C0.611328 34.8204 10.5894 44.778 22.8979 44.778ZM22.8978 43.8416C11.1075 43.8416 1.54964 34.3032 1.54964 22.537C1.54964 10.7708 11.1075 1.23244 22.8978 1.23244C34.6881 1.23244 44.246 10.7708 44.246 22.537C44.246 34.3032 34.6881 43.8416 22.8978 43.8416Z" fill="#056DAE"/>
<path fill-rule="evenodd" clip-rule="evenodd" d="M27.524 7.08323C28.4697 6.45312 29.3311 6.22044 30.0747 6.592C30.5808 6.84487 30.9182 6.63631 31.241 5.71128C31.1886 5.19741 30.5317 4.73416 29.1344 4.38503C28.8628 4.31717 28.6559 4.25381 28.4952 4.18702C27.7472 3.87606 27.7444 3.26157 28.3675 2.79835C28.6212 2.60981 30.3315 1.6198 30.2797 1.65087C30.3996 1.57893 30.5455 1.5642 30.6775 1.61068C34.2293 2.86171 37.1512 4.92053 39.5003 7.55981C40.9147 9.14895 42.0353 10.8506 42.8936 12.5532C43.1946 13.1501 43.4415 13.7053 43.6382 14.2047C43.7075 14.3807 43.7657 14.5375 43.8133 14.6735C43.8424 14.7568 43.8619 14.8159 43.8721 14.8488C44.0432 15.3986 43.262 15.7119 43.0043 15.1968C42.83 14.8484 42.6606 14.8704 42.6606 15.0183C42.6606 15.779 42.2207 16.2492 41.499 16.389C41.0134 16.4831 40.4348 16.4399 39.6072 16.2927C39.4645 16.2673 39.3207 16.2401 39.1253 16.202C38.8227 16.143 38.5691 16.0971 38.3609 16.0619C38.6658 16.2038 38.9885 16.3606 39.1788 16.4747C39.5077 16.6719 39.8 16.8934 40.058 17.1513C40.8364 17.9292 40.6194 18.8305 39.7861 19.5463C39.2104 20.0408 38.3254 20.445 37.8472 20.445C37.5136 20.445 37.2865 20.2308 37.2153 19.9286C37.1828 19.7906 37.1805 19.6989 37.1859 19.4046C37.193 19.013 37.1788 18.8075 37.1093 18.5734C37.1102 18.5764 37.0967 18.5709 37.0664 18.5584C37.0055 18.5334 36.8769 18.4806 36.6624 18.4144L36.5594 18.3827C35.8343 18.1598 35.5588 18.0038 35.5588 17.4822C35.5588 17.0392 35.3407 16.6031 35.1602 16.5309C35.1405 16.523 35.1318 16.5253 35.0676 16.5926C34.9172 16.75 34.7622 17.0839 34.6342 17.5956C34.1852 19.3904 35.6724 20.6065 38.6073 21.3398C39.5983 21.5874 39.7635 22.3769 39.2974 23.3631C39.0101 23.9708 38.6851 24.4326 37.5976 25.8695C37.515 25.9787 37.4824 26.0219 37.4328 26.0877C36.2014 27.7226 35.7146 28.6112 35.8569 29.0378C36.2014 30.071 35.8524 30.644 35.0054 31.0673C34.9722 31.0839 34.8849 31.1264 34.8378 31.1494L34.8374 31.1496L34.8072 31.1643C34.7724 31.1815 34.7417 31.1962 34.7149 31.2092C34.6003 31.2645 34.5549 31.2864 34.5484 31.3167C34.5441 31.3365 34.5565 31.3598 34.5771 31.3985L34.5771 31.3986C34.5836 31.4109 34.5909 31.4247 34.5988 31.4404C35.2924 32.8268 33.6956 34.8787 31.9237 35.7641C30.9423 36.2545 30.258 35.3624 29.9451 33.9034C29.6872 32.7004 29.7107 31.2445 30.0358 30.2697C30.2571 29.6062 29.9897 28.5038 29.2817 26.9117C29.1448 26.6039 28.994 26.2816 28.8063 25.8927L28.7649 25.8076C28.6319 25.5347 28.2204 24.69 28.1003 24.4352C27.8515 23.9076 27.6831 23.5116 27.5705 23.1738C27.497 22.9537 27.3195 22.9332 26.3175 23.0806C25.6306 23.1816 25.2261 23.2129 24.7605 23.167C23.0512 22.9985 21.9176 21.6943 21.3906 18.7978C20.6825 14.9056 22.7391 13.5209 26.3563 14.0374C27.1532 14.1512 27.9922 14.3499 28.8902 14.6192C29.2234 14.7191 29.548 14.8235 29.9068 14.9442C29.9796 14.9687 30.1335 15.0213 30.282 15.0719L30.282 15.0719C30.4358 15.1244 30.5837 15.1749 30.6295 15.1901C31.9784 15.6395 33.068 14.9589 33.7592 13.5772C33.771 13.5537 33.7805 13.542 33.7875 13.5368C33.6828 13.4695 33.489 13.4113 33.0755 13.3195C32.9811 13.2986 32.931 13.2875 32.8837 13.2768C31.7653 13.0248 31.2445 12.7358 31.2445 11.9385C31.2445 11.5712 30.51 10.6213 29.7254 9.99398L29.7217 9.99109C30.2957 11.1922 30.2783 12.0985 29.6842 12.5438C29.1021 12.9801 28.1628 12.6867 28.1628 11.9385L28.1628 11.9105L28.1629 11.8901C28.1636 11.8463 28.1668 11.8027 28.1816 11.6L28.1826 11.5863C28.1979 11.3774 28.2033 11.2405 28.1983 11.1038C28.1883 10.8295 28.1338 10.6645 28.0614 10.6084C28.044 10.6066 28.0084 10.6099 27.9195 10.6247C27.8636 10.634 27.8114 10.6417 27.7621 10.6472L27.7678 10.6701C27.8334 10.9322 27.8685 11.1371 27.8685 11.3225C27.8685 12.1979 27.6457 12.6589 26.7568 12.8966C26.7848 12.8891 26.7619 12.9115 26.5887 13.0813L26.5887 13.0813L26.5306 13.1383C26.1944 13.468 25.9251 13.6386 25.5503 13.6386C24.252 13.6386 23.8088 13.3433 23.5885 12.4625C23.4435 11.8829 23.4228 11.8142 23.2815 11.5316C23.0074 10.9838 23.017 10.5134 23.5318 10.3287C23.7664 10.2445 23.8715 10.2558 24.4517 10.3586C24.5689 10.3794 24.6459 10.3919 24.7221 10.4021C25.0151 10.4411 25.1732 10.4207 25.2183 10.3757C25.3575 10.2365 25.3879 10.1298 25.3892 9.84207L25.3893 9.78255C25.3893 9.20756 25.4675 8.89458 25.8346 8.52774C26.4718 7.89089 26.936 7.47499 27.524 7.08323ZM42.0554 12.9741C41.2319 11.3406 40.1556 9.70622 38.7987 8.18173C36.5958 5.70663 33.8713 3.76843 30.5685 2.56658C30.2226 2.76785 29.5023 3.18846 29.1343 3.4159C29.202 3.4353 29.2778 3.45552 29.3623 3.47661C31.1912 3.93357 32.1829 4.67689 32.1829 5.77874C32.1829 5.829 32.1748 5.87893 32.1588 5.92662C31.6683 7.39725 30.7778 7.99062 29.6546 7.42937C28.9721 7.08831 27.859 7.82995 26.4986 9.18946C26.3521 9.33592 26.3277 9.43359 26.3277 9.78256L26.3276 9.84624C26.3253 10.3569 26.2307 10.6891 25.8823 11.0374C25.5674 11.3521 25.1585 11.405 24.5979 11.3303C24.5053 11.318 24.4172 11.3036 24.2878 11.2807L24.1925 11.2641C24.2644 11.4246 24.3229 11.5848 24.3733 11.7528C24.4155 11.8932 24.4485 12.0253 24.4989 12.2357C24.6073 12.669 24.6571 12.7022 25.5503 12.7022C25.6006 12.7022 25.7022 12.6378 25.8728 12.4704C25.8402 12.5025 26.0594 12.2831 26.1191 12.2289C26.2514 12.1089 26.3662 12.0315 26.5139 11.9921C26.8983 11.8893 26.9301 11.8234 26.9301 11.3225C26.9301 11.2324 26.9058 11.0904 26.8574 10.8969C26.8438 10.8426 26.8287 10.7852 26.8096 10.7155L26.7595 10.5337C26.7398 10.4616 26.7255 10.4081 26.713 10.358C26.6754 10.2077 26.6562 10.1018 26.6562 9.99929C26.6562 9.67585 26.8916 9.36222 27.3064 9.47277C27.4464 9.51009 27.5558 9.58878 27.6965 9.72535C27.6986 9.72975 27.7047 9.73518 27.7129 9.74252L27.7208 9.74963L27.725 9.75343L27.6965 9.72535C27.6917 9.71538 27.7073 9.71067 27.7647 9.7011C27.9678 9.66717 28.0804 9.65882 28.2397 9.68886C28.3793 9.71518 28.5103 9.7725 28.6291 9.86277L28.6371 9.86894C28.4056 9.25487 28.4597 8.83211 29.0116 8.70954C29.3751 8.62881 29.7901 8.84576 30.3121 9.26315C31.3067 10.0584 32.1829 11.1915 32.1829 11.9385C32.1829 12.086 32.404 12.2087 33.0904 12.3633C33.1359 12.3736 33.1841 12.3843 33.2794 12.4054C33.8267 12.5269 34.0753 12.6024 34.3143 12.7617C34.7346 13.0417 34.8466 13.5002 34.5988 13.9955C33.7212 15.7497 32.1993 16.7003 30.3324 16.0784C30.2834 16.0621 30.1294 16.0096 29.9723 15.956L29.9711 15.9555C29.825 15.9057 29.6763 15.855 29.6068 15.8316C29.2573 15.7139 28.9423 15.6126 28.6203 15.516C27.7636 15.2592 26.9681 15.0707 26.2235 14.9644C23.1618 14.5273 21.7414 15.4836 22.3139 18.6305C22.7723 21.15 23.6089 22.1125 24.8528 22.2351C25.2203 22.2714 25.5658 22.2446 26.1807 22.1542C27.6711 21.935 28.1652 21.9918 28.4608 22.8781C28.5592 23.173 28.7152 23.5397 28.9494 24.0367C29.0653 24.2826 29.4656 25.1042 29.6044 25.3891L29.6045 25.3893L29.6518 25.4864C29.8433 25.8833 29.998 26.2139 30.1394 26.5319C30.9414 28.3353 31.2482 29.6 30.9262 30.5655C30.6585 31.3682 30.6376 32.6576 30.8628 33.7075C30.9693 34.2045 31.1219 34.5955 31.2869 34.8105C31.3942 34.9504 31.431 34.963 31.5036 34.9267C32.8695 34.2442 34.1375 32.6148 33.7592 31.8587C33.3868 31.1144 33.6753 30.6776 34.3918 30.3246L34.4326 30.3047C34.4812 30.281 34.5579 30.2436 34.5853 30.2299C35.0576 29.9939 35.1411 29.8569 34.9665 29.3336C34.6729 28.4533 35.1952 27.5001 36.6827 25.5251C36.7328 25.4586 36.7658 25.4149 36.8488 25.3051C37.885 23.936 38.2018 23.4859 38.4487 22.9635C38.6959 22.4406 38.6709 22.3211 38.3794 22.2482C35.003 21.4046 33.1029 19.8509 33.7238 17.3688C34.0613 16.0197 34.7088 15.3417 35.5091 15.6616C36.0703 15.886 36.4579 16.617 36.4944 17.3668C36.5604 17.3989 36.6599 17.4337 36.8357 17.4878L36.9396 17.5197C37.5914 17.7209 37.8812 17.8766 38.0091 18.3074C38.1136 18.6594 38.1329 18.9395 38.1241 19.4216L38.1237 19.4425C38.4296 19.3323 38.8706 19.0972 39.1739 18.8366C39.6427 18.4339 39.715 18.1338 39.394 17.8131C39.1937 17.6128 38.9619 17.4372 38.6955 17.2775C38.4673 17.1406 37.9357 16.8978 37.5487 16.7211L37.5487 16.7211L37.5487 16.721L37.5485 16.721L37.5484 16.7209C37.3271 16.6198 37.1531 16.5404 37.1104 16.5147C36.6236 16.2229 36.497 15.7349 36.9287 15.3034C37.3136 14.9187 37.5734 14.9453 39.3052 15.2829C39.496 15.3201 39.6352 15.3464 39.7719 15.3708C40.4912 15.4988 40.9816 15.5353 41.3202 15.4697C41.6226 15.4111 41.7222 15.3047 41.7222 15.0183C41.7222 14.4216 42.0935 14.0701 42.5406 14.0065C42.3994 13.6815 42.2379 13.3361 42.0554 12.9741ZM28.8286 10.2997C28.9755 10.5933 29.0764 10.851 29.1361 11.071C29.117 10.5453 28.9822 10.1359 28.6371 9.86892C28.688 10.0037 28.7525 10.1476 28.8286 10.2997ZM29.1206 11.795C29.1659 11.7611 29.2029 11.6771 29.2029 11.5053C29.2029 11.3825 29.1813 11.2375 29.1361 11.071C29.1426 11.2497 29.1361 11.4145 29.1186 11.6544L29.1078 11.8028C29.1123 11.8006 29.1167 11.798 29.1206 11.795Z" fill="#056DAE"/>
<path fill-rule="evenodd" clip-rule="evenodd" d="M4.51626 18.8998C4.51375 18.8936 4.50573 18.8897 4.48041 18.8775L4.46407 18.8695C4.35257 18.8149 4.16154 18.7775 3.89682 18.7663C3.32892 19.2157 2.68455 19.1699 2.13226 18.6286C1.64073 18.1469 1.36315 17.7261 1.31836 17.3207L1.32025 17.2032C1.72448 14.3793 3.32349 11.1878 6.11619 7.60498C8.1205 5.20471 10.8407 3.26251 14.2706 1.77699C14.4012 1.72039 14.5506 1.72611 14.6766 1.79252C15.5358 2.2456 15.5358 3.03732 14.7875 3.77677C14.3454 4.21368 14.7688 4.93132 15.9269 5.49883C16.384 5.7228 16.5281 5.79714 16.6776 5.89478C17.0113 6.11285 17.1955 6.37967 17.0064 6.75035C16.843 7.07067 16.7569 7.10442 15.2347 7.60167C14.9117 7.70719 14.6181 7.78133 14.3293 7.83238C14.4642 7.9136 14.5443 7.97784 14.6283 8.06013C14.8878 8.3145 14.9265 8.5043 14.9265 9.01298C14.9265 9.39354 14.6837 9.67253 14.3203 9.72733C14.0985 9.76077 13.8514 9.71164 13.5755 9.60349C13.2026 9.45731 12.7806 9.199 12.4421 8.91577C12.403 9.00232 12.35 9.12283 12.3024 9.23098C12.2554 9.3379 12.2137 9.43274 12.1959 9.47074C11.8223 10.2696 11.3894 10.7188 10.669 10.7188C9.92305 10.7188 8.61268 12.645 8.61268 13.3444C8.61268 13.7119 8.44508 14.5332 8.27209 15.0418C8.22255 15.1874 8.17325 15.3063 8.12025 15.3998C7.97615 15.654 7.80072 15.8134 7.46479 15.7037C7.08194 15.5786 7.04291 15.3327 7.04291 14.5819L7.04291 14.5419C6.54923 14.6082 5.97176 14.3474 5.2892 13.6784C4.87255 13.2701 4.63247 13.2243 4.40596 13.3791C4.1598 13.5473 3.91209 13.9303 3.62147 14.5625C3.58827 14.6347 3.51024 14.8115 3.43159 14.9898L3.43157 14.9898L3.43156 14.9898C3.34834 15.1785 3.26442 15.3686 3.2322 15.4381C3.07124 15.785 2.94567 16.0007 2.78975 16.1535C2.72372 16.2182 2.76535 16.3896 3.02652 16.6456C3.36597 16.9782 3.88792 17.2075 4.35517 17.2075C4.74523 17.2075 5.03676 17.0833 5.43987 16.8199C5.55544 16.7444 5.58247 16.7278 5.64458 16.7013C5.981 16.5579 6.40219 16.7908 6.32716 17.232C6.30563 17.3586 6.29516 17.3804 6.03606 17.8882C5.98785 17.9827 5.95223 18.0442 5.92836 18.0854C5.89844 18.1371 5.88695 18.1569 5.89223 18.17C5.89551 18.1781 5.90528 18.1836 5.92113 18.1926C5.93011 18.1976 5.94105 18.2038 5.95386 18.2122C5.93793 18.2018 6.06926 18.2859 6.11103 18.3146C6.50599 18.5855 6.71852 18.9466 6.71852 19.5321C6.71852 19.8845 6.83701 20.0364 7.05006 20.0781C7.28826 20.1248 7.60651 20.0208 7.81475 19.8168C8.27188 19.3688 8.71559 19.2818 9.10362 19.6621C9.13488 19.6927 9.21926 19.8012 9.31906 19.9296C9.46349 20.1153 9.64023 20.3426 9.73501 20.4355C9.84009 20.5385 10.1109 20.5982 10.5783 20.6084C10.6682 20.6104 10.7419 20.6108 10.9058 20.6108C11.3477 20.6108 11.5195 20.6176 11.721 20.6591C12.0934 20.736 12.3669 20.9468 12.398 21.3165C12.4417 21.3505 12.5165 21.3939 12.6297 21.4493C12.6562 21.4624 12.7323 21.4979 12.8164 21.5372L12.8169 21.5375L12.8171 21.5375C12.9207 21.586 13.0362 21.6399 13.0857 21.6642C13.8689 22.048 14.2952 22.4889 14.2952 23.2447C14.2952 23.4468 14.2915 23.5304 14.2665 23.708C14.6034 23.7641 15.2482 23.8845 15.832 24.0275C17.1865 24.3593 17.7227 25.0016 17.4272 25.8703C17.3573 26.0759 17.2584 26.2552 17.0867 26.5207C16.8737 26.85 16.8207 26.9465 16.8207 26.9573C16.8207 28.4181 16.0345 31.7569 15.0887 31.7569C15.092 31.7569 15.0897 31.764 15.0833 31.7832C15.0691 31.8255 15.0352 31.9266 14.9989 32.1405C14.9393 32.4907 14.9265 32.8656 14.9265 33.7638C14.9265 34.33 14.7308 34.6232 14.3129 34.8645L14.2686 34.8901L14.268 34.8904C14.1634 34.9508 14.1459 34.9609 14.1296 34.9727L14.1193 34.9803L14.1042 34.9916C13.8279 35.1947 13.6638 35.6638 13.6638 36.8576C13.6638 38.4514 13.352 39.6225 12.77 39.9077C11.8613 40.353 11.4626 39.246 11.4626 37.4764C11.4626 36.1732 11.358 34.9604 11.1512 33.44C11.1402 33.3593 11.1118 33.1574 11.0787 32.9224L11.0787 32.9222L11.0785 32.921L11.0785 32.921L11.0784 32.9201C11.0233 32.5293 10.9556 32.0481 10.9338 31.8808C10.8646 31.3495 10.8312 30.9782 10.8312 30.6699C10.8312 30.4654 10.677 30.2387 10.3017 29.9322C10.1322 29.7938 9.54104 29.3814 9.14192 29.103L9.14189 29.103C8.96431 28.9791 8.82474 28.8818 8.77725 28.8469C8.05814 28.3183 7.53138 27.8193 7.12391 27.2203C6.50803 26.3149 6.36296 25.8098 6.62376 25.2598C6.65483 25.1942 6.7697 25.0198 6.89836 24.8244L6.89838 24.8244L6.89839 24.8244L6.89848 24.8242C7.05095 24.5927 7.22277 24.3317 7.2975 24.1877C7.45215 23.8896 7.58209 23.5475 7.6888 23.1292C8.00888 21.8744 7.94073 21.7349 7.36736 21.5415L7.28067 21.5121C6.95378 21.4 6.74951 21.2973 6.55197 21.1037C6.39842 20.9532 6.23252 20.8231 5.83078 20.5278C5.61634 20.3702 5.52177 20.2996 5.40701 20.2096C4.81511 19.7456 4.51737 19.3865 4.51737 18.9133L4.51738 18.9108C4.5174 18.9059 4.51742 18.9026 4.51626 18.8998ZM2.36914 17.3136C2.33404 17.2792 2.30039 17.2443 2.26828 17.2088L2.26017 17.2616C2.30185 17.4065 2.47381 17.6506 2.78986 17.9604C3.02809 18.1938 3.15654 18.194 3.3946 17.9609C3.00883 17.8152 2.65127 17.5901 2.36914 17.3136ZM6.84693 8.19218C8.69474 5.97973 11.212 4.15983 14.3953 2.74516C14.4159 2.81353 14.335 2.90596 14.1272 3.11131C13.0609 4.16501 13.8681 5.53326 15.5133 6.33941C15.598 6.38091 15.671 6.41686 15.7345 6.44837C15.5685 6.50633 15.3366 6.58299 14.9427 6.71165C14.242 6.94055 13.7016 6.9978 12.9577 6.9978C12.7988 6.9978 12.7531 6.99856 12.6899 7.00525C12.5946 7.01536 12.5226 7.03277 12.4324 7.09282C12.1796 7.26112 12.1581 7.57926 12.3185 7.78891L12.3326 7.80758C12.063 7.8268 11.8253 8.05206 11.6539 8.388C11.6107 8.47279 11.5004 8.72374 11.423 8.89975L11.423 8.89984L11.423 8.89992C11.3859 8.98421 11.3564 9.05129 11.3455 9.07466C11.1116 9.57487 10.9117 9.78227 10.669 9.78227C9.31035 9.78227 7.67424 12.1874 7.67424 13.3444C7.67424 13.3645 7.67329 13.3877 7.67146 13.4135C7.50559 13.332 7.3104 13.3709 7.15516 13.4723C7.13896 13.4829 7.10319 13.5093 7.07189 13.5324C7.04755 13.5504 7.02591 13.5664 7.01828 13.5714C6.83976 13.688 6.5806 13.6316 5.94663 13.0103C5.25958 12.337 4.56063 12.1843 3.94382 12.5623C4.68204 11.1857 5.64942 9.72869 6.84693 8.19218ZM13.9836 8.75583C13.9811 8.73875 13.9771 8.73442 13.9708 8.72828C13.8929 8.65195 13.7285 8.56016 13.1256 8.26337C13.3727 8.45705 13.6692 8.63407 13.9186 8.73184C13.9414 8.74076 13.9631 8.74874 13.9836 8.75583ZM5.57946 19.0863C5.66355 19.144 5.71591 19.1948 5.74598 19.2722C5.65229 19.1878 5.58243 19.1155 5.53475 19.0568C5.55402 19.0694 5.57099 19.0805 5.57946 19.0863ZM8.52452 20.4352C8.50898 20.4495 8.49151 20.466 8.47224 20.4848C8.34238 20.6121 8.19314 20.7197 8.03272 20.8045C8.7905 21.1889 8.97978 21.8642 8.59818 23.3601C8.47392 23.8473 8.31855 24.2564 8.1308 24.6182C8.0055 24.8598 7.7466 25.246 7.59301 25.4752C7.52617 25.5749 7.47928 25.6449 7.47199 25.6602C7.39278 25.8273 7.45288 26.0365 7.9003 26.6942C8.23822 27.191 8.69294 27.6218 9.33374 28.0928C9.3684 28.1182 9.48037 28.1963 9.63045 28.3009C10.0277 28.5778 10.692 29.0408 10.896 29.2075C11.4678 29.6744 11.7696 30.1181 11.7696 30.6699C11.7696 30.9279 11.8 31.2658 11.8644 31.76C11.8855 31.922 11.952 32.3946 12.0067 32.7834C12.0404 33.0227 12.0696 33.2301 12.081 33.314C12.2931 34.8726 12.401 36.124 12.401 37.4763C12.401 37.996 12.4384 38.4159 12.5026 38.7156C12.5167 38.6714 12.5305 38.6243 12.5438 38.5743C12.659 38.1416 12.7254 37.5514 12.7254 36.8576C12.7254 35.3958 12.9862 34.6502 13.5477 34.2375C13.6003 34.1989 13.6534 34.1643 13.7138 34.1283C13.7473 34.1084 13.7859 34.0864 13.8429 34.0539C13.9096 34.0154 13.9457 33.9945 13.9652 33.9634C13.9882 33.9266 13.9882 33.8754 13.9882 33.7637C13.9882 32.8056 14.0017 32.407 14.0737 31.9837C14.1856 31.3256 14.4495 30.8879 14.963 30.8275C15.0079 30.7626 15.0618 30.6579 15.1187 30.5202C15.2458 30.213 15.3766 29.7724 15.5002 29.2479C15.7078 28.3661 15.8823 27.2665 15.8823 26.9572C15.8823 26.775 15.9411 26.6084 16.0466 26.4163C16.0814 26.3527 16.1209 26.2875 16.1716 26.2081C16.199 26.1651 16.2946 26.0184 16.2983 26.0128C16.4304 25.8084 16.5004 25.6815 16.5386 25.5692C16.6253 25.3143 16.4907 25.1531 15.6083 24.9369C15.2355 24.8456 14.7517 24.7517 14.3534 24.6745C13.9752 24.6011 13.6742 24.5427 13.6192 24.5157C13.3019 24.3602 13.2523 24.1253 13.3032 23.8006C13.3536 23.4798 13.3568 23.4533 13.3568 23.2446C13.3568 22.9433 13.1674 22.7474 12.6721 22.5047C12.633 22.4856 12.5346 22.4396 12.4378 22.3943C12.3439 22.3504 12.2516 22.3073 12.2161 22.2899C11.7919 22.082 11.5435 21.8875 11.4793 21.5671C11.3716 21.5514 11.2196 21.5472 10.9058 21.5472C10.7351 21.5472 10.6569 21.5467 10.5578 21.5446C9.86063 21.5294 9.41075 21.4302 9.07753 21.1036C8.90713 20.9366 8.65201 20.6048 8.52452 20.4352Z" fill="#056DAE"/>
</svg>
