<svg width="26" height="26" viewBox="0 0 26 26" fill="none" xmlns="http://www.w3.org/2000/svg">
<path fill-rule="evenodd" clip-rule="evenodd" d="M6.45926 3.45926C10.0716 -0.153087 15.9284 -0.153087 19.5407 3.45926C23.1531 7.07161 23.1531 12.9284 19.5407 16.5407C19.283 16.7985 19.0212 17.0348 18.7524 17.2515L18.6132 17.3614L18.4727 17.4679L18.25 17.625V21.5C18.25 22.3672 17.6193 23.087 16.7916 23.2258L16.749 23.23L16.75 23.5C16.75 24.4182 16.0429 25.1712 15.1435 25.2442L15 25.25H11C10.0818 25.25 9.32881 24.5429 9.2558 23.6435L9.25 23.5L9.24891 23.2321C8.45122 23.1175 7.82731 22.4649 7.75667 21.6538L7.75 21.5V17.634L7.54328 17.4876C7.3596 17.3508 7.17884 17.2043 6.99888 17.047L6.72927 16.8025L6.45926 16.5407C2.84691 12.9284 2.84691 7.07161 6.45926 3.45926ZM15.249 23.25H10.749L10.75 23.5C10.75 23.6183 10.8322 23.7175 10.9427 23.7434L11 23.75H15C15.1183 23.75 15.2175 23.6678 15.2434 23.5573L15.25 23.5L15.249 23.25ZM16.749 20.247H9.249L9.25 21.5C9.25 21.6183 9.33223 21.7175 9.44268 21.7434L9.5 21.75H16.5C16.6183 21.75 16.7175 21.6678 16.7434 21.5573L16.75 21.5L16.749 20.247ZM18.4801 4.51992C15.4535 1.49336 10.5465 1.49336 7.51992 4.51992C4.49336 7.54649 4.49336 12.4535 7.51992 15.4801C7.98402 15.9442 8.42505 16.3039 8.8948 16.5948C9.08408 16.712 9.20984 16.9059 9.24191 17.1225L9.25 17.2325L9.249 18.747H16.749L16.75 17.2231C16.75 17.0007 16.8485 16.7919 17.0155 16.6506L17.1046 16.5858C17.3468 16.4355 17.5815 16.2686 17.8111 16.0835C18.0373 15.9013 18.2593 15.7008 18.4801 15.4801C21.5066 12.4535 21.5066 7.54649 18.4801 4.51992Z" fill="#5C5F66"/>
<mask id="mask0" mask-type="alpha" maskUnits="userSpaceOnUse" x="3" y="0" width="20" height="26">
<path fill-rule="evenodd" clip-rule="evenodd" d="M6.45926 3.45926C10.0716 -0.153087 15.9284 -0.153087 19.5407 3.45926C23.1531 7.07161 23.1531 12.9284 19.5407 16.5407C19.283 16.7985 19.0212 17.0348 18.7524 17.2515L18.6132 17.3614L18.4727 17.4679L18.25 17.625V21.5C18.25 22.3672 17.6193 23.087 16.7916 23.2258L16.749 23.23L16.75 23.5C16.75 24.4182 16.0429 25.1712 15.1435 25.2442L15 25.25H11C10.0818 25.25 9.32881 24.5429 9.2558 23.6435L9.25 23.5L9.24891 23.2321C8.45122 23.1175 7.82731 22.4649 7.75667 21.6538L7.75 21.5V17.634L7.54328 17.4876C7.3596 17.3508 7.17884 17.2043 6.99888 17.047L6.72927 16.8025L6.45926 16.5407C2.84691 12.9284 2.84691 7.07161 6.45926 3.45926ZM15.249 23.25H10.749L10.75 23.5C10.75 23.6183 10.8322 23.7175 10.9427 23.7434L11 23.75H15C15.1183 23.75 15.2175 23.6678 15.2434 23.5573L15.25 23.5L15.249 23.25ZM16.749 20.247H9.249L9.25 21.5C9.25 21.6183 9.33223 21.7175 9.44268 21.7434L9.5 21.75H16.5C16.6183 21.75 16.7175 21.6678 16.7434 21.5573L16.75 21.5L16.749 20.247ZM18.4801 4.51992C15.4535 1.49336 10.5465 1.49336 7.51992 4.51992C4.49336 7.54649 4.49336 12.4535 7.51992 15.4801C7.98402 15.9442 8.42505 16.3039 8.8948 16.5948C9.08408 16.712 9.20984 16.9059 9.24191 17.1225L9.25 17.2325L9.249 18.747H16.749L16.75 17.2231C16.75 17.0007 16.8485 16.7919 17.0155 16.6506L17.1046 16.5858C17.3468 16.4355 17.5815 16.2686 17.8111 16.0835C18.0373 15.9013 18.2593 15.7008 18.4801 15.4801C21.5066 12.4535 21.5066 7.54649 18.4801 4.51992Z" fill="white"/>
</mask>
<g mask="url(#mask0)">
</g>
</svg>
