<svg width="20" height="20" viewBox="0 0 20 20" fill="none" xmlns="http://www.w3.org/2000/svg">
<path fill-rule="evenodd" clip-rule="evenodd" d="M10.0002 0.577148L10.2063 0.580077C14.0407 0.689155 17.1155 3.83176 17.1155 7.69253C17.1155 10.2859 14.883 14.0943 10.4361 19.2243C10.3402 19.3348 10.2128 19.3993 10.0802 19.4178L10.0002 19.4233C9.83969 19.4233 9.67924 19.357 9.56422 19.2243C5.1173 14.0943 2.88477 10.2859 2.88477 7.69253C2.88477 3.83176 5.95964 0.689155 9.79402 0.580077L10.0002 0.577148ZM10.0002 1.73099L9.81091 1.73394C6.60601 1.83388 4.03861 4.46338 4.03861 7.69253C4.03861 9.72886 5.82541 12.9466 9.41299 17.2639L10.0002 17.9602L10.5873 17.2639C14.0099 13.1452 15.7935 10.0272 15.9503 7.98101L15.9589 7.8332L15.9617 7.69253C15.9617 4.46338 13.3943 1.83388 10.1894 1.73394L10.0002 1.73099ZM10.0002 3.65407C12.2305 3.65407 14.0386 5.46215 14.0386 7.69253C14.0386 9.92291 12.2305 11.731 10.0002 11.731C7.76977 11.731 5.96169 9.92291 5.96169 7.69253C5.96169 5.46215 7.76977 3.65407 10.0002 3.65407ZM10.0002 4.80792C8.40702 4.80792 7.11553 6.0994 7.11553 7.69253C7.11553 9.28566 8.40702 10.5771 10.0002 10.5771C11.5933 10.5771 12.8848 9.28566 12.8848 7.69253C12.8848 6.0994 11.5933 4.80792 10.0002 4.80792Z" fill="#5C5F66"/>
<mask id="mask0" mask-type="alpha" maskUnits="userSpaceOnUse" x="2" y="0" width="16" height="20">
<path fill-rule="evenodd" clip-rule="evenodd" d="M10.0002 0.577148L10.2063 0.580077C14.0407 0.689155 17.1155 3.83176 17.1155 7.69253C17.1155 10.2859 14.883 14.0943 10.4361 19.2243C10.3402 19.3348 10.2128 19.3993 10.0802 19.4178L10.0002 19.4233C9.83969 19.4233 9.67924 19.357 9.56422 19.2243C5.1173 14.0943 2.88477 10.2859 2.88477 7.69253C2.88477 3.83176 5.95964 0.689155 9.79402 0.580077L10.0002 0.577148ZM10.0002 1.73099L9.81091 1.73394C6.60601 1.83388 4.03861 4.46338 4.03861 7.69253C4.03861 9.72886 5.82541 12.9466 9.41299 17.2639L10.0002 17.9602L10.5873 17.2639C14.0099 13.1452 15.7935 10.0272 15.9503 7.98101L15.9589 7.8332L15.9617 7.69253C15.9617 4.46338 13.3943 1.83388 10.1894 1.73394L10.0002 1.73099ZM10.0002 3.65407C12.2305 3.65407 14.0386 5.46215 14.0386 7.69253C14.0386 9.92291 12.2305 11.731 10.0002 11.731C7.76977 11.731 5.96169 9.92291 5.96169 7.69253C5.96169 5.46215 7.76977 3.65407 10.0002 3.65407ZM10.0002 4.80792C8.40702 4.80792 7.11553 6.0994 7.11553 7.69253C7.11553 9.28566 8.40702 10.5771 10.0002 10.5771C11.5933 10.5771 12.8848 9.28566 12.8848 7.69253C12.8848 6.0994 11.5933 4.80792 10.0002 4.80792Z" fill="white"/>
</mask>
<g mask="url(#mask0)">
</g>
</svg>
