<svg xmlns="http://www.w3.org/2000/svg" viewBox="0 0 380.2 42.3"><defs><style>.cls-1{fill:#e1251b;}.cls-2{fill:#fff;}</style></defs><title>Asset 2</title><g id="Layer_2" data-name="Layer 2"><g id="Layer_1-2" data-name="Layer 1"><path class="cls-1" d="M188.87,20.43c-.89-.29-1.84-.57-2.72-.78.47-.55,1.27-1.52,1.85-2.32a3.59,3.59,0,0,0,.91-2.13,3.74,3.74,0,0,0-.62-1.84A11.73,11.73,0,0,0,185.23,10a5.88,5.88,0,0,0-3.11-1.25,2.22,2.22,0,0,0-1.78.88c-.56.75-1.11,1.56-1.59,2.31-.38-.61-1.06-1.65-1.66-2.45a3.11,3.11,0,0,0-2.62-1.57,10.46,10.46,0,0,0-5.24,2c-.93.67-2.34,1.79-2.34,3.16a2.14,2.14,0,0,0,.48,1.3c.55.77,1.15,1.53,1.72,2.22-.7.18-1.92.49-2.87.79-1.88.61-2.65,1.44-2.65,3.9a11.29,11.29,0,0,0,.6,3.62c.46,1.41,1.45,3.87,3.72,3.13.9-.29,1.82-.62,2.67-1-.05.72-.12,1.42-.12,2.41,0,2.46.5,3.19,2,3.93a11.6,11.6,0,0,0,4.56.91c1.5,0,4.16-.18,4.16-2.55,0-1.48,0-1.91-.08-2.8.67.26,1.84.71,2.8,1a5.28,5.28,0,0,0,1.6.3,3,3,0,0,0,2.24-1.25,11,11,0,0,0,2.73-6.26A2.25,2.25,0,0,0,188.87,20.43Zm-16.49-6.67a8.13,8.13,0,0,1,4.84-1.52,8.49,8.49,0,0,1,1.28.09,8.2,8.2,0,0,0-1.37,2.95,1.33,1.33,0,0,0-1.37-.88c-1.15,0-2.26.73-3.1.73a.71.71,0,0,1-.74-.69A.84.84,0,0,1,172.38,13.76Zm-2,8.52c0,.79-.08,1.26-.57,1.42s-.75,0-.95-.63a8.16,8.16,0,0,1,.52-6.14,11.06,11.06,0,0,0,2.35,2.22.49.49,0,0,0-.3.06C170.23,19.58,170.35,21.27,170.38,22.28Zm6.34,7A8.15,8.15,0,0,1,171,26.92a19.39,19.39,0,0,0,1.86-.9,4.14,4.14,0,0,0,.95-.68,1,1,0,0,0-.06.36c0,1.24,1.65,1.64,2.63,1.94.77.23,1.26.49,1.26,1S177.4,29.33,176.72,29.33Zm3.39-4.4a4.11,4.11,0,0,0-2.92-.77,4.93,4.93,0,0,0-3.11.73,2.32,2.32,0,0,0,.21-1,6,6,0,0,0-.38-1.87,4.85,4.85,0,0,0-1.66-2.71,4.11,4.11,0,0,0,2.81-1.08,4.79,4.79,0,0,0,2.09-2.4c.12.64.62,1.38,1.91,2.31A4.79,4.79,0,0,0,182,19.33a4.11,4.11,0,0,0-1.64,2.51A7.28,7.28,0,0,0,180,24,2.26,2.26,0,0,0,180.11,24.93Zm4,1a9.13,9.13,0,0,1-3,2.58,16.91,16.91,0,0,0-.27-2.09,4.05,4.05,0,0,0-.36-1.1,1.13,1.13,0,0,0,.33.17c1.19.38,2.09-1.05,2.68-1.88.39-.55.74-.84,1.12-.84a.66.66,0,0,1,.69.61A6.16,6.16,0,0,1,184.11,26ZM183,19.1a2.07,2.07,0,0,0-.5,0,1.26,1.26,0,0,0,.51-1,4.59,4.59,0,0,0-1.23-2.34,2.23,2.23,0,0,1-.56-1.15.68.68,0,0,1,.66-.67,1.11,1.11,0,0,1,.61.24,8,8,0,0,1,3.23,5.33A12.81,12.81,0,0,0,183,19.1Z"/><path class="cls-1" d="M40.9,12.11H37.06a13.09,13.09,0,0,0-19.18,0H14.05a16.22,16.22,0,0,1,26.85,0"/><path class="cls-2" d="M52,14.42a6.79,6.79,0,0,0-4.49,1.89V9.68l-3.29,1.76V31.05h3.29V29.53a6.35,6.35,0,0,0,4.33,1.86c3.38,0,6.81-2.64,6.81-8.22,0-6.21-3.15-8.75-6.65-8.75m-.47,14a5.77,5.77,0,0,1-4.06-2.14V19.44a5.53,5.53,0,0,1,3.94-2.07c2.36,0,4,1.8,4,5.89,0,3.44-1.6,5.18-3.9,5.18m38.63-6.73v9.34H86.84V21.83c0-3.28-1.24-4.46-3.35-4.46S80,18.89,80,21.52v9.53H76.73V14.76H80v1.55a5.32,5.32,0,0,1,4.27-1.89c3.78,0,5.83,2.1,5.83,7.29M67.3,14.42a10.32,10.32,0,0,0-5.64,1.46L62.9,18.3a8.17,8.17,0,0,1,4.25-1c2,0,3.32,1,3.32,2.76v1.21a9.75,9.75,0,0,0-3.76-.62c-3.69,0-6.65,1.65-6.65,5.28,0,4,3.18,5.49,5.82,5.49a6.75,6.75,0,0,0,4.59-1.95v1.61h3.28V19.88c0-3.69-2.82-5.46-6.45-5.46m3.17,12A5.4,5.4,0,0,1,66.4,28.5c-2.11,0-3.25-1.08-3.25-2.7s1.42-2.42,3.47-2.42a8.59,8.59,0,0,1,3.85.72Zm28.86-12a10.33,10.33,0,0,0-5.65,1.46l1.24,2.42a8.18,8.18,0,0,1,4.26-1c2,0,3.31,1,3.31,2.76v1.21a9.7,9.7,0,0,0-3.75-.62c-3.69,0-6.65,1.65-6.65,5.28,0,4,3.17,5.49,5.81,5.49a6.73,6.73,0,0,0,4.59-1.95v1.61h3.28V19.88c0-3.69-2.81-5.46-6.44-5.46m3.16,12a5.38,5.38,0,0,1-4.06,2.07c-2.11,0-3.26-1.08-3.26-2.7s1.43-2.42,3.48-2.42a8.54,8.54,0,0,1,3.84.72Zm28.68-4.84v9.46h-3.28V21.83c0-3.28-1-4.46-3.13-4.46s-3.09,1.52-3.09,4.15v9.53h-3.29V21.83c0-3.28-1-4.46-3.08-4.46S112,18.89,112,21.52v9.53h-3.28V14.76H112v1.55a4.81,4.81,0,0,1,4-1.89,4.65,4.65,0,0,1,4.47,2.39,5.67,5.67,0,0,1,5-2.39c3.79,0,5.67,1.71,5.67,7.17m16.72,1c0-4.41-2.48-8.16-7.1-8.16-4.22,0-7.44,3-7.44,8.5s3.53,8.47,7.34,8.47a8.2,8.2,0,0,0,5.86-2.14l-1.77-2.09a6.83,6.83,0,0,1-3.9,1.3c-2,0-4-1.29-4.34-4.42h11.25c0-.35.1-.87.1-1.46M136.6,21.4c.28-2.61,1.83-4.1,4-4.1,2.63,0,3.93,1.87,4.09,4.1Zm25.32,9.65h-3.81l-1.56-2.82c-.65-1.19-1.39-2.67-1.7-3.29-.28.62-1.15,2.2-1.77,3.31l-1.58,2.8h-3.62l5-8.44-4.66-7.85h3.71l1.28,2.3c.65,1.18,1.42,2.63,1.7,3.25.34-.62,1.12-2.17,1.74-3.32l1.24-2.23h3.69l-4.69,7.85ZM3.37,22.92a5,5,0,0,0,5.07,5.24,5.54,5.54,0,0,0,4-1.83l.07-.08,1.9,2.28,0,.06a7.22,7.22,0,0,1-5.78,2.76,8.74,8.74,0,0,1-6-2.19A8.22,8.22,0,0,1,0,22.92a8.19,8.19,0,0,1,2.54-6.24,8.75,8.75,0,0,1,6-2.2,7.22,7.22,0,0,1,5.78,2.76l0,.06-1.9,2.29-.07-.07a5.52,5.52,0,0,0-4-1.85,5,5,0,0,0-5.07,5.25m12.9-8.18h3.34V31H16.27ZM32.7,27.5l.19-.13-.8,3.15,0,0a5.13,5.13,0,0,1-3,.75c-2.22,0-3.71-1.75-3.71-4.26V17.82H22.56V14.76h2.82V11.44l3.28-1.76v5.08h3.4v3.06h-3.4v8.66c0,1.27.48,1.84,1.57,1.84a4.93,4.93,0,0,0,2.47-.82m2.76-12.76h3.35V31H35.46Z"/><path class="cls-2" d="M194.63,12.24a2.09,2.09,0,0,1-.13.72,1.62,1.62,0,0,1-.37.55,1.46,1.46,0,0,1-.55.36,1.87,1.87,0,0,1-1.37,0,1.54,1.54,0,0,1-.55-.36,1.75,1.75,0,0,1-.36-.55,1.88,1.88,0,0,1-.13-.72,1.8,1.8,0,0,1,.13-.71,1.75,1.75,0,0,1,.36-.55,1.54,1.54,0,0,1,.55-.36,1.87,1.87,0,0,1,1.37,0,1.46,1.46,0,0,1,.55.36,1.62,1.62,0,0,1,.37.55A2,2,0,0,1,194.63,12.24Zm-.24,0a1.59,1.59,0,0,0-.11-.62,1.55,1.55,0,0,0-.32-.48,1.38,1.38,0,0,0-.47-.31,1.45,1.45,0,0,0-.59-.12,1.58,1.58,0,0,0-1.07.43,1.52,1.52,0,0,0-.31.48,1.59,1.59,0,0,0-.12.62,1.52,1.52,0,0,0,.12.62,1.46,1.46,0,0,0,.31.49,1.42,1.42,0,0,0,.48.31,1.59,1.59,0,0,0,.59.11,1.63,1.63,0,0,0,.59-.11,1.38,1.38,0,0,0,.47-.31,1.49,1.49,0,0,0,.32-.49A1.52,1.52,0,0,0,194.39,12.24Zm-.72-.44a.52.52,0,0,1-.12.36.55.55,0,0,1-.33.19l.43.83h-.3l-.41-.81h-.41v.81h-.26V11.24h.78a.86.86,0,0,1,.24,0,.47.47,0,0,1,.2.1.59.59,0,0,1,.13.17A.66.66,0,0,1,193.67,11.8Zm-.26,0a.27.27,0,0,0-.1-.24.38.38,0,0,0-.28-.09h-.5v.66H193a.47.47,0,0,0,.3-.08A.28.28,0,0,0,193.41,11.8Z"/><rect class="cls-2" x="219.03" width="0.85" height="42.3"/><path class="cls-2" d="M374.21,27.17H359.63V23.7h14.58ZM359.63,18h14.58v3.37H359.63Zm13.49,11.53c2.58,0,3.77-1.07,3.77-2.92V25a1.23,1.23,0,0,0-.56-1.08l-1.66-1.42,1.66-1.43a1.22,1.22,0,0,0,.56-1.07V18.56c0-1.85-1.19-2.92-3.77-2.92H357V29.53ZM346,27.17H331.46V23.7H346ZM331.46,18H346v3.37H331.46ZM345,29.53c2.58,0,3.77-1.07,3.77-2.92V25a1.23,1.23,0,0,0-.56-1.08l-1.66-1.42,1.66-1.43a1.22,1.22,0,0,0,.56-1.07V18.56c0-1.85-1.19-2.92-3.77-2.92H328.84V29.53ZM317.2,15.64V27.05H303.41V15.64h-2.62V26.35c0,2,1.19,3.18,3.55,3.18h11.92c2.37,0,3.56-1.21,3.56-3.18V15.64Zm-42,5.68V15.64h-2.62V29.53h2.62V23.76h14v5.77h2.61V15.64h-2.61v5.68Zm-10.26-3.2V15.64H249.53c-2.36,0-3.55,1.21-3.55,3.18v7.53c0,2,1.19,3.18,3.55,3.18H264.9V27.05H248.66V18.12Z"/><path class="cls-2" d="M379.88,17.51a1.11,1.11,0,0,1-1.56,0,1.11,1.11,0,0,1,.78-1.89,1.11,1.11,0,0,1,.78,1.89Zm-1.45-1.46a1,1,0,0,0,0,1.35.94.94,0,0,0,1.34,0,1,1,0,0,0,0-1.35.94.94,0,0,0-1.34,0Zm.65.06a.87.87,0,0,1,.33.05.3.3,0,0,1,.19.3.26.26,0,0,1-.12.24.38.38,0,0,1-.18.06.31.31,0,0,1,.21.12.32.32,0,0,1,.07.19v.18a.35.35,0,0,0,0,.06v0h-.2v0h0v-.13c0-.14,0-.24-.12-.28a.43.43,0,0,0-.23,0h-.17v.48h-.22V16.11Zm.23.19a.59.59,0,0,0-.26,0h-.18v.44h.19a.49.49,0,0,0,.2,0,.18.18,0,0,0,.13-.19A.19.19,0,0,0,379.31,16.3Z"/></g></g></svg>