<svg xmlns="http://www.w3.org/2000/svg" viewBox="0 0 62.13 64.76"><defs><style>.cls-1{fill:#b3b3b3;}</style></defs><title>Asset 1</title><g id="Layer_2" data-name="Layer 2"><g id="_7" data-name="7"><path class="cls-1" d="M50.39,0H11.74A11.76,11.76,0,0,0,0,11.74V53A11.76,11.76,0,0,0,11.74,64.76H50.39A11.75,11.75,0,0,0,62.13,53V11.74A11.75,11.75,0,0,0,50.39,0Zm0,60.38H11.74A7.37,7.37,0,0,1,4.38,53V11.74a7.37,7.37,0,0,1,7.36-7.36H50.39a7.37,7.37,0,0,1,7.37,7.36V53A7.37,7.37,0,0,1,50.39,60.38Z"/><path class="cls-1" d="M14.1,21.28h1.08c.39,0,.78,0,1.16.06a8.1,8.1,0,0,1,1.06.17,2.84,2.84,0,0,1,.85.32,4.14,4.14,0,0,1,1.3,1.27,3.52,3.52,0,0,1,.54,2,3.83,3.83,0,0,1-.6,2.16,3.6,3.6,0,0,1-1.73,1.34v0A3.58,3.58,0,0,1,20,30a3.94,3.94,0,0,1,.77,2.45,4.52,4.52,0,0,1-.31,1.66,4.19,4.19,0,0,1-.91,1.44,4.54,4.54,0,0,1-1.49,1A5.11,5.11,0,0,1,16,36.9H8.41V21.28ZM14.67,28a4.18,4.18,0,0,0,2.56-.62A2.28,2.28,0,0,0,18,25.5a2.67,2.67,0,0,0-.26-1.31,1.86,1.86,0,0,0-.72-.75A3,3,0,0,0,16,23.1,10.4,10.4,0,0,0,14.67,23H10.5v5Zm1.05,7.16a3,3,0,0,0,2.16-.75,2.69,2.69,0,0,0,.78-2,2.54,2.54,0,0,0-.28-1.27,2.25,2.25,0,0,0-.76-.8,3.18,3.18,0,0,0-1.09-.42,6.59,6.59,0,0,0-1.27-.12H10.5v5.41Z"/><path class="cls-1" d="M31,36.9V35.1h0a3.76,3.76,0,0,1-1.52,1.54,4.52,4.52,0,0,1-2.17.5,5.05,5.05,0,0,1-1.87-.3A3.06,3.06,0,0,1,24.19,36a3.24,3.24,0,0,1-.64-1.3A6.75,6.75,0,0,1,23.36,33V25.59h1.87v7.65a2.26,2.26,0,0,0,.61,1.67,2.32,2.32,0,0,0,1.69.61A3.88,3.88,0,0,0,29,35.26a2.88,2.88,0,0,0,1-.75,3.26,3.26,0,0,0,.62-1.13A4.53,4.53,0,0,0,30.89,32V25.59h1.87V36.9Z"/><path class="cls-1" d="M37.48,25.59V28h0a4.93,4.93,0,0,1,1.67-2,4.18,4.18,0,0,1,2.5-.62v2a5.2,5.2,0,0,0-1.91.31,3,3,0,0,0-1.27.9,3.61,3.61,0,0,0-.7,1.43,7.53,7.53,0,0,0-.22,1.93v5H35.72V25.59Z"/><path class="cls-1" d="M43.05,28.92A5.34,5.34,0,0,1,44.11,27a4.93,4.93,0,0,1,1.73-1.26,6.36,6.36,0,0,1,4.75,0A5.12,5.12,0,0,1,52.32,27a5.32,5.32,0,0,1,1,1.88,7.63,7.63,0,0,1,.35,2.33,7.52,7.52,0,0,1-.35,2.32,5.28,5.28,0,0,1-1,1.87,5,5,0,0,1-1.73,1.25,6.49,6.49,0,0,1-4.75,0,4.79,4.79,0,0,1-1.73-1.25,5.3,5.3,0,0,1-1.06-1.87,7.52,7.52,0,0,1-.35-2.32A7.63,7.63,0,0,1,43.05,28.92ZM45,33.08a3.74,3.74,0,0,0,.76,1.33,3.25,3.25,0,0,0,1.13.82,3.38,3.38,0,0,0,2.74,0,3.16,3.16,0,0,0,1.13-.82,3.6,3.6,0,0,0,.76-1.33,5.67,5.67,0,0,0,.28-1.83,5.76,5.76,0,0,0-.28-1.83,3.73,3.73,0,0,0-.76-1.34,3.19,3.19,0,0,0-1.13-.83,3.38,3.38,0,0,0-2.74,0,3.28,3.28,0,0,0-1.13.83A3.88,3.88,0,0,0,45,29.42a5.77,5.77,0,0,0-.27,1.83A5.68,5.68,0,0,0,45,33.08Zm3.9-13-2.11,3.54h1.41l3.09-3.54Z"/><path class="cls-1" d="M9.73,41.4a1.42,1.42,0,0,1,1,.33,1.34,1.34,0,0,1,.35,1,2.35,2.35,0,0,1-.08.63,1.12,1.12,0,0,1-.24.46,1,1,0,0,1-.43.29,1.8,1.8,0,0,1-.6.09h-1V41.4Zm0,2.5h.15a.8.8,0,0,0,.21,0,.71.71,0,0,0,.21-.11.68.68,0,0,0,.19-.19,1,1,0,0,0,.13-.3,1.51,1.51,0,0,0,0-.45,2.09,2.09,0,0,0,0-.45,1,1,0,0,0-.17-.34.7.7,0,0,0-.29-.21,1.13,1.13,0,0,0-.44-.07H9.13V43.9Z"/><path class="cls-1" d="M12.93,44.08a.91.91,0,0,1-.58.18,1.08,1.08,0,0,1-.42-.08.84.84,0,0,1-.3-.22.88.88,0,0,1-.19-.34,1.84,1.84,0,0,1-.07-.43,1.37,1.37,0,0,1,.07-.42,1.27,1.27,0,0,1,.2-.34,1,1,0,0,1,.31-.22.92.92,0,0,1,.38-.08.89.89,0,0,1,.46.11.86.86,0,0,1,.28.29.84.84,0,0,1,.15.38,1.72,1.72,0,0,1,0,.39H11.73a1,1,0,0,0,0,.25.53.53,0,0,0,.11.21.54.54,0,0,0,.21.15.67.67,0,0,0,.63,0,.43.43,0,0,0,.18-.3h.34A.82.82,0,0,1,12.93,44.08Zm-.08-1.3a.51.51,0,0,0-.31-.31.56.56,0,0,0-.23,0,.59.59,0,0,0-.23,0,.46.46,0,0,0-.18.13.57.57,0,0,0-.12.18.54.54,0,0,0,0,.22H12.9A.54.54,0,0,0,12.85,42.78Z"/><path class="cls-1" d="M16.71,41.4v.32H15.13v.89H16.6v.32H15.13v1h1.59v.31h-2V41.4Z"/><path class="cls-1" d="M17.43,42.18v.32h0a.72.72,0,0,1,.67-.37.81.81,0,0,1,.33.06.48.48,0,0,1,.22.15.84.84,0,0,1,.12.23,1.55,1.55,0,0,1,0,.31v1.33h-.34V42.84a.38.38,0,0,0-.41-.41.77.77,0,0,0-.27,0,.67.67,0,0,0-.19.14.64.64,0,0,0-.11.2,1,1,0,0,0,0,.25v1.15h-.33v-2Z"/><path class="cls-1" d="M20.19,42.18v.29h-.41v1.27a.22.22,0,0,0,0,.09.13.13,0,0,0,0,.06l.08,0h.28v.29h-.48a.35.35,0,0,1-.15-.07.25.25,0,0,1-.09-.13.79.79,0,0,1,0-.23v-1.3H19.1v-.29h.35v-.61h.33v.61Z"/><path class="cls-1" d="M20.58,41.81V41.4h.33v.41Zm.33.37v2h-.33v-2Z"/><path class="cls-1" d="M22.93,44.21v-.27h0a.51.51,0,0,1-.26.24,1,1,0,0,1-.39.08.88.88,0,0,1-.71-.32,1,1,0,0,1-.18-.34,1.76,1.76,0,0,1-.06-.41,1.4,1.4,0,0,1,.06-.41,1,1,0,0,1,.18-.34.72.72,0,0,1,.29-.22.88.88,0,0,1,.41-.09l.17,0,.18.05a1,1,0,0,1,.17.1.5.5,0,0,1,.14.15h0V41.4h.33v2.81Zm-1.21-.72a.66.66,0,0,0,.11.24.47.47,0,0,0,.2.17.53.53,0,0,0,.28.07.62.62,0,0,0,.29-.07.58.58,0,0,0,.2-.18.64.64,0,0,0,.1-.24.9.9,0,0,0,0-.28.92.92,0,0,0,0-.29.71.71,0,0,0-.11-.25.57.57,0,0,0-.5-.23.58.58,0,0,0-.28.06.55.55,0,0,0-.19.18.71.71,0,0,0-.11.25,1.43,1.43,0,0,0,0,.29A.86.86,0,0,0,21.72,43.49Z"/><path class="cls-1" d="M25.59,44.21a.54.54,0,0,1-.24,0,.27.27,0,0,1-.29-.31.82.82,0,0,1-.32.24,1.24,1.24,0,0,1-.4.07,1.09,1.09,0,0,1-.26,0,.68.68,0,0,1-.21-.1.54.54,0,0,1-.15-.18.67.67,0,0,1,0-.26.58.58,0,0,1,.06-.28.45.45,0,0,1,.15-.18.91.91,0,0,1,.22-.11l.26-.06.26,0,.22,0a.26.26,0,0,0,.15-.07.17.17,0,0,0,.06-.14.4.4,0,0,0,0-.18.26.26,0,0,0-.11-.1.33.33,0,0,0-.15-.05h-.16a.63.63,0,0,0-.35.08.33.33,0,0,0-.16.3h-.33a.66.66,0,0,1,.08-.32.63.63,0,0,1,.19-.21.81.81,0,0,1,.27-.11,1.12,1.12,0,0,1,.32,0l.28,0a.62.62,0,0,1,.24.08.42.42,0,0,1,.18.17.52.52,0,0,1,.07.29v1a.87.87,0,0,0,0,.18s0,.05.1.05h.1ZM25,43.16a.34.34,0,0,1-.16.07l-.22,0-.23,0a.66.66,0,0,0-.2.06.33.33,0,0,0-.15.11.29.29,0,0,0-.06.19.26.26,0,0,0,0,.14.28.28,0,0,0,.09.1.33.33,0,0,0,.12.05h.15a.79.79,0,0,0,.28,0,.56.56,0,0,0,.2-.12.42.42,0,0,0,.11-.15.4.4,0,0,0,0-.15Z"/><path class="cls-1" d="M27.39,44.21v-.27h0a.47.47,0,0,1-.26.24,1,1,0,0,1-.39.08.88.88,0,0,1-.41-.09.74.74,0,0,1-.29-.23,1,1,0,0,1-.18-.34,1.35,1.35,0,0,1-.06-.41,1.4,1.4,0,0,1,.06-.41,1,1,0,0,1,.17-.34.89.89,0,0,1,.29-.22.91.91,0,0,1,.41-.09l.17,0,.18.05.18.1a.47.47,0,0,1,.13.15h0V41.4h.34v2.81Zm-1.21-.72a.9.9,0,0,0,.12.24.47.47,0,0,0,.2.17.51.51,0,0,0,.28.07.65.65,0,0,0,.29-.07.55.55,0,0,0,.19-.18.66.66,0,0,0,.11-.24,1.33,1.33,0,0,0,0-.28,1.36,1.36,0,0,0,0-.29.72.72,0,0,0-.12-.25.56.56,0,0,0-.2-.17.57.57,0,0,0-.77.18.69.69,0,0,0-.1.25,1.43,1.43,0,0,0,0,.29A1.27,1.27,0,0,0,26.18,43.49Z"/><path class="cls-1" d="M29.69,44.08a.89.89,0,0,1-.58.18,1.08,1.08,0,0,1-.42-.08.84.84,0,0,1-.3-.22,1,1,0,0,1-.19-.34,1.84,1.84,0,0,1-.07-.43,1.12,1.12,0,0,1,.08-.42,1,1,0,0,1,.19-.34,1,1,0,0,1,.31-.22,1,1,0,0,1,.38-.08.89.89,0,0,1,.46.11.86.86,0,0,1,.28.29,1,1,0,0,1,.16.38,2.56,2.56,0,0,1,0,.39H28.49a1,1,0,0,0,0,.25.45.45,0,0,0,.12.21.5.5,0,0,0,.2.15.69.69,0,0,0,.64,0,.51.51,0,0,0,.18-.3H30A.82.82,0,0,1,29.69,44.08Zm-.08-1.3a.76.76,0,0,0-.12-.19.57.57,0,0,0-.18-.12.61.61,0,0,0-.24,0,.59.59,0,0,0-.23,0,.46.46,0,0,0-.18.13.57.57,0,0,0-.12.18.54.54,0,0,0-.05.22h1.17A.54.54,0,0,0,29.61,42.78Z"/><path class="cls-1" d="M30.62,43.76a.37.37,0,0,0,.13.12l.17.07.2,0,.17,0a.47.47,0,0,0,.16,0,.27.27,0,0,0,.12-.09.25.25,0,0,0,.05-.16.23.23,0,0,0-.1-.19.82.82,0,0,0-.25-.11L31,43.28a1.35,1.35,0,0,1-.32-.09.65.65,0,0,1-.25-.17.45.45,0,0,1-.1-.31.44.44,0,0,1,.07-.26.39.39,0,0,1,.18-.18.64.64,0,0,1,.24-.1.84.84,0,0,1,.27,0,1.58,1.58,0,0,1,.32,0,.88.88,0,0,1,.26.1.49.49,0,0,1,.18.2.71.71,0,0,1,.08.31h-.34a.25.25,0,0,0-.05-.16.29.29,0,0,0-.11-.11l-.15-.06h-.31l-.14,0a.31.31,0,0,0-.11.08.22.22,0,0,0,0,.13.21.21,0,0,0,.07.14.56.56,0,0,0,.15.1l.22.06.23,0,.25.07a.68.68,0,0,1,.21.1.49.49,0,0,1,.15.17.43.43,0,0,1,.06.24.59.59,0,0,1-.08.31.61.61,0,0,1-.2.19.78.78,0,0,1-.28.11,1.63,1.63,0,0,1-.31,0,1.12,1.12,0,0,1-.32,0,.78.78,0,0,1-.28-.11.65.65,0,0,1-.18-.22.61.61,0,0,1-.08-.32h.33A.36.36,0,0,0,30.62,43.76Z"/><path class="cls-1" d="M35.35,41.4v.32H33.87v.89h1.3v.32h-1.3v1.28H33.5V41.4Z"/><path class="cls-1" d="M35.73,41.81V41.4h.33v.41Zm.33.37v2h-.33v-2Z"/><path class="cls-1" d="M36.9,42.18v.32h0a.72.72,0,0,1,.66-.37.83.83,0,0,1,.34.06.48.48,0,0,1,.22.15.61.61,0,0,1,.11.23,1.06,1.06,0,0,1,0,.31v1.33h-.34V42.84a.41.41,0,0,0-.11-.3.39.39,0,0,0-.3-.11.7.7,0,0,0-.27,0,.55.55,0,0,0-.19.14.49.49,0,0,0-.11.2.69.69,0,0,0,0,.25v1.15h-.33v-2Z"/><path class="cls-1" d="M40.59,44.21a.54.54,0,0,1-.24,0,.35.35,0,0,1-.21-.07.33.33,0,0,1-.07-.24.85.85,0,0,1-.33.24,1.23,1.23,0,0,1-.39.07,1.24,1.24,0,0,1-.27,0,.68.68,0,0,1-.21-.1.42.42,0,0,1-.14-.18.53.53,0,0,1-.06-.26.58.58,0,0,1,.06-.28.4.4,0,0,1,.16-.18.76.76,0,0,1,.22-.11l.25-.06.27,0,.22,0a.35.35,0,0,0,.15-.07.2.2,0,0,0,0-.14.3.3,0,0,0,0-.18.21.21,0,0,0-.11-.1.34.34,0,0,0-.14-.05H39.6a.66.66,0,0,0-.36.08.32.32,0,0,0-.15.3h-.34a.79.79,0,0,1,.08-.32.76.76,0,0,1,.19-.21.81.81,0,0,1,.27-.11,1.15,1.15,0,0,1,.33,0l.27,0a.73.73,0,0,1,.25.08.58.58,0,0,1,.18.17.62.62,0,0,1,.06.29v1a.74.74,0,0,0,0,.18s0,.05.09.05h.1Zm-.54-1.05a.44.44,0,0,1-.17.07l-.21,0-.23,0a.65.65,0,0,0-.21.06.33.33,0,0,0-.15.11.36.36,0,0,0,0,.19.26.26,0,0,0,0,.14.28.28,0,0,0,.09.1l.12.05h.15a.85.85,0,0,0,.29,0,.52.52,0,0,0,.19-.12.33.33,0,0,0,.11-.15.28.28,0,0,0,0-.15Z"/><path class="cls-1" d="M41.22,42.18v.32h0a.72.72,0,0,1,.66-.37.83.83,0,0,1,.34.06.48.48,0,0,1,.22.15.61.61,0,0,1,.11.23,1.55,1.55,0,0,1,0,.31v1.33h-.34V42.84a.41.41,0,0,0-.11-.3.39.39,0,0,0-.31-.11.68.68,0,0,0-.26,0,.55.55,0,0,0-.19.14.49.49,0,0,0-.11.2.69.69,0,0,0,0,.25v1.15H40.9v-2Z"/><path class="cls-1" d="M44.32,42.53a.49.49,0,0,0-.34-.1.67.67,0,0,0-.3.06.7.7,0,0,0-.2.18.67.67,0,0,0-.1.26,1.36,1.36,0,0,0,0,.29,1.27,1.27,0,0,0,0,.28.87.87,0,0,0,.1.24.6.6,0,0,0,.46.23.57.57,0,0,0,.39-.13.56.56,0,0,0,.17-.37h.35a.94.94,0,0,1-.28.58.9.9,0,0,1-.62.21,1.08,1.08,0,0,1-.42-.08.81.81,0,0,1-.3-.21.88.88,0,0,1-.18-.33,1.5,1.5,0,0,1,0-.84,1,1,0,0,1,.18-.35.76.76,0,0,1,.3-.23.94.94,0,0,1,.43-.09,1.65,1.65,0,0,1,.32,0,.84.84,0,0,1,.27.13.67.67,0,0,1,.19.22.94.94,0,0,1,.1.31h-.35A.5.5,0,0,0,44.32,42.53Z"/><path class="cls-1" d="M45.24,41.81V41.4h.34v.41Zm.34.37v2h-.34v-2Z"/><path class="cls-1" d="M47.55,44.08a.93.93,0,0,1-.58.18,1.14,1.14,0,0,1-.43-.08.93.93,0,0,1-.3-.22,1,1,0,0,1-.18-.34,1.84,1.84,0,0,1-.07-.43,1.12,1.12,0,0,1,.07-.42.95.95,0,0,1,.5-.56,1,1,0,0,1,.39-.08.88.88,0,0,1,.45.11.89.89,0,0,1,.29.29,1.16,1.16,0,0,1,.15.38,1.29,1.29,0,0,1,0,.39H46.35a.68.68,0,0,0,.14.46.5.5,0,0,0,.2.15A.65.65,0,0,0,47,44a.63.63,0,0,0,.35-.1.51.51,0,0,0,.18-.3h.33A.77.77,0,0,1,47.55,44.08Zm-.08-1.3a.8.8,0,0,0-.13-.19.57.57,0,0,0-.18-.12.59.59,0,0,0-.23,0,.53.53,0,0,0-.23,0,.5.5,0,0,0-.19.13.78.78,0,0,0-.11.18.54.54,0,0,0,0,.22h1.17A.79.79,0,0,0,47.47,42.78Z"/><path class="cls-1" d="M48.53,42.18v.43h0a1.05,1.05,0,0,1,.3-.37.81.81,0,0,1,.46-.11v.36a.92.92,0,0,0-.35,0,.63.63,0,0,0-.23.16.57.57,0,0,0-.12.26,1.25,1.25,0,0,0,0,.35v.9h-.34v-2Z"/><path class="cls-1" d="M51.35,44.21a.54.54,0,0,1-.24,0,.27.27,0,0,1-.29-.31.82.82,0,0,1-.32.24,1.24,1.24,0,0,1-.4.07,1.09,1.09,0,0,1-.26,0,.68.68,0,0,1-.21-.1.44.44,0,0,1-.15-.18.67.67,0,0,1,0-.26.58.58,0,0,1,.06-.28.45.45,0,0,1,.15-.18.91.91,0,0,1,.22-.11l.26-.06.26,0,.22,0a.35.35,0,0,0,.15-.07.17.17,0,0,0,.06-.14.4.4,0,0,0,0-.18.26.26,0,0,0-.11-.1.33.33,0,0,0-.15-.05h-.16a.63.63,0,0,0-.35.08.33.33,0,0,0-.16.3h-.33a.66.66,0,0,1,.08-.32.72.72,0,0,1,.18-.21.78.78,0,0,1,.28-.11,1.12,1.12,0,0,1,.32,0l.28,0a.62.62,0,0,1,.24.08.42.42,0,0,1,.18.17.52.52,0,0,1,.07.29v1a.87.87,0,0,0,0,.18s0,.05.09.05h.11Zm-.55-1.05a.39.39,0,0,1-.16.07l-.22,0-.23,0a.66.66,0,0,0-.2.06.33.33,0,0,0-.15.11.29.29,0,0,0-.06.19.2.2,0,0,0,0,.14.39.39,0,0,0,.08.1L50,44h.15a.79.79,0,0,0,.28,0,.56.56,0,0,0,.2-.12.42.42,0,0,0,.11-.15.4.4,0,0,0,0-.15Z"/><path class="cls-1" d="M51.92,43.76a.34.34,0,0,0,.12.12.75.75,0,0,0,.18.07l.19,0,.17,0a.42.42,0,0,0,.16,0,.27.27,0,0,0,.12-.09.25.25,0,0,0,0-.16.21.21,0,0,0-.1-.19.82.82,0,0,0-.25-.11l-.32-.08a1.68,1.68,0,0,1-.32-.09.74.74,0,0,1-.25-.17.5.5,0,0,1-.1-.31.53.53,0,0,1,.07-.26.52.52,0,0,1,.18-.18.63.63,0,0,1,.25-.1.84.84,0,0,1,.27,0,1.66,1.66,0,0,1,.32,0,.93.93,0,0,1,.25.1.49.49,0,0,1,.18.2.59.59,0,0,1,.08.31h-.33a.34.34,0,0,0-.05-.16.38.38,0,0,0-.11-.11l-.15-.06h-.32l-.14,0a.27.27,0,0,0-.1.08.17.17,0,0,0,0,.13.2.2,0,0,0,.06.14.49.49,0,0,0,.16.1l.21.06.24,0,.24.07a.74.74,0,0,1,.22.1.61.61,0,0,1,.15.17.43.43,0,0,1,0,.24.59.59,0,0,1-.07.31.61.61,0,0,1-.2.19,1,1,0,0,1-.28.11l-.31,0a1.15,1.15,0,0,1-.33,0,.81.81,0,0,1-.27-.11.67.67,0,0,1-.19-.22.61.61,0,0,1-.08-.32h.34A.29.29,0,0,0,51.92,43.76Z"/><path class="cls-1" d="M8.45,44.71v-.2H53.38v.2Z"/></g></g></svg>