<svg xmlns="http://www.w3.org/2000/svg" viewBox="0 0 142.28 63.88"><defs><style>.cls-1{fill:#b3b3b3;}</style></defs><title>Asset 2</title><g id="Layer_2" data-name="Layer 2"><g id="_7" data-name="7"><polygon class="cls-1" points="125.51 38.89 125.51 36.49 116.4 36.49 116.4 33.61 122.87 33.61 122.87 31.21 116.4 31.21 116.4 29.54 125.51 29.54 125.51 26.78 110.88 26.78 110.88 38.89 125.51 38.89"/><polygon class="cls-1" points="133.17 38.89 133.17 33.61 139.64 33.61 139.64 31.21 133.17 31.21 133.17 29.54 142.28 29.54 142.28 26.78 127.65 26.78 127.65 38.89 133.17 38.89"/><path class="cls-1" d="M93,34.82h5.1a1.62,1.62,0,0,0,.68,1,3.55,3.55,0,0,0,2.37.71,3.61,3.61,0,0,0,1.78-.36q.63-.36.63-.84a1,1,0,0,0-.6-.82,9.2,9.2,0,0,0-2.75-.68,15,15,0,0,1-5-1.42,2.6,2.6,0,0,1-1.52-2.26,2.41,2.41,0,0,1,.78-1.7,5.2,5.2,0,0,1,2.33-1.26,15.72,15.72,0,0,1,4.29-.46,12.27,12.27,0,0,1,5.08.83,3.56,3.56,0,0,1,2.09,2.66h-5.06a1.4,1.4,0,0,0-.85-.95,3.74,3.74,0,0,0-1.79-.36,3.09,3.09,0,0,0-1.42.26.77.77,0,0,0-.48.65q0,.28.39.51a6.36,6.36,0,0,0,1.81.43,31,31,0,0,1,5.05,1,5.27,5.27,0,0,1,2.22,1.3,2.56,2.56,0,0,1,.69,1.74,2.93,2.93,0,0,1-.92,2.07,5.83,5.83,0,0,1-2.59,1.45,15.38,15.38,0,0,1-4.19.49c-3,0-5-.39-6.15-1.15A4.07,4.07,0,0,1,93,34.82Z"/><path class="cls-1" d="M12.13,34.46h5.43A6.11,6.11,0,0,1,16,37a7,7,0,0,1-2.63,1.33,14.77,14.77,0,0,1-4,.45,17.23,17.23,0,0,1-4.81-.55,7.33,7.33,0,0,1-3.23-1.93A4.83,4.83,0,0,1,0,32.72a5,5,0,0,1,2.38-4.41,12.39,12.39,0,0,1,6.74-1.54,13.26,13.26,0,0,1,5.37.89,7.44,7.44,0,0,1,3,3.32l-5,.09a2.34,2.34,0,0,0-.54-.77,3.45,3.45,0,0,0-1.15-.63,5.1,5.1,0,0,0-1.51-.22,4,4,0,0,0-2.91,1,3,3,0,0,0-.76,2.27,3.16,3.16,0,0,0,.91,2.63,4,4,0,0,0,2.56.72,3.55,3.55,0,0,0,2.43-.58C12.09,34.86,11.89,35.2,12.13,34.46Z"/><path class="cls-1" d="M19,32.81a5.13,5.13,0,0,1,2.31-4.47,11.23,11.23,0,0,1,6.45-1.6,11.49,11.49,0,0,1,6.54,1.57,5,5,0,0,1,2.29,4.4,5.43,5.43,0,0,1-1,3.38,6.44,6.44,0,0,1-2.89,2,13.21,13.21,0,0,1-4.73.73,15.17,15.17,0,0,1-4.75-.63,6.63,6.63,0,0,1-3.05-2A5.07,5.07,0,0,1,19,32.81Zm5.25,0a3.13,3.13,0,0,0,.95,2.55,4,4,0,0,0,2.6.77,4,4,0,0,0,2.61-.75,3.38,3.38,0,0,0,.93-2.73,2.87,2.87,0,0,0-1-2.41,4.09,4.09,0,0,0-2.62-.76,4,4,0,0,0-2.54.77A3.11,3.11,0,0,0,24.2,32.82Z"/><path class="cls-1" d="M39.17,26.93h4.62l6,6.61V26.93h4.66V38.86H49.83l-6-6.57v6.57H39.17Z"/><path class="cls-1" d="M57.31,26.87h8a13.64,13.64,0,0,1,3.81.44,6.52,6.52,0,0,1,2.4,1.27,4.94,4.94,0,0,1,1.37,1.93,6.26,6.26,0,0,1,.43,2.33,5.91,5.91,0,0,1-.63,3,5.41,5.41,0,0,1-1.76,1.77,6.82,6.82,0,0,1-2.42,1,17.64,17.64,0,0,1-3.2.33h-8Zm5.37,2.73v6.56H64a7.79,7.79,0,0,0,2.39-.26A2.14,2.14,0,0,0,67.5,35a4,4,0,0,0,.41-2.08A3.17,3.17,0,0,0,67,30.3a5,5,0,0,0-3-.7Z"/><path class="cls-1" d="M85.82,26.87h5v7a4.41,4.41,0,0,1-.45,2,4.28,4.28,0,0,1-1.39,1.63,6.1,6.1,0,0,1-2,1,13.47,13.47,0,0,1-3.48.39c-.78,0-1.64,0-2.57-.12a8.59,8.59,0,0,1-2.32-.48,6,6,0,0,1-1.71-1,3.51,3.51,0,0,1-1.06-1.36,5.28,5.28,0,0,1-.46-2v-7h5v7.2A1.77,1.77,0,0,0,81,35.58a3.37,3.37,0,0,0,2,.54,3.45,3.45,0,0,0,2-.53,1.78,1.78,0,0,0,.73-1.52Z"/><path class="cls-1" d="M49.16,4.42A27.38,27.38,0,0,1,64.75,9.27a24.36,24.36,0,0,0-16.81,14.8h4.83A19.93,19.93,0,0,1,65,13.78a32,32,0,0,0-4.69,10.29h4.59a27.42,27.42,0,0,1,5.29-9.82,27.59,27.59,0,0,1,5.3,9.82H80.1a31.7,31.7,0,0,0-4.84-10.51,20,20,0,0,1,13.1,10.51h4.82A24.35,24.35,0,0,0,75.87,9.15a27.5,27.5,0,0,1,41.78,14.92h4.59A31.91,31.91,0,0,0,70.22,8a31.9,31.9,0,0,0-52,16.11H22.8A27.55,27.55,0,0,1,49.16,4.42Z"/><path class="cls-1" d="M91.28,59.46A27.36,27.36,0,0,1,77.91,56,24.41,24.41,0,0,0,93.56,40.63H88.81A19.94,19.94,0,0,1,73.63,52.44a31.86,31.86,0,0,0,6.26-11.81H75.25a27.57,27.57,0,0,1-5,9,27.54,27.54,0,0,1-5-9H60.55a31.88,31.88,0,0,0,6.16,11.69,19.92,19.92,0,0,1-14.4-11.69H47.57A24.42,24.42,0,0,0,62.79,55.84,27.49,27.49,0,0,1,23.06,40.63H18.44A31.89,31.89,0,0,0,68.86,57.05c.56,0,1.13.07,1.7.07l1.08,0A31.89,31.89,0,0,0,122,40.63h-4.62A27.57,27.57,0,0,1,91.28,59.46Z"/></g></g></svg>