<svg width="13" height="29" viewBox="0 0 13 29" fill="none" xmlns="http://www.w3.org/2000/svg">
<path fill-rule="evenodd" clip-rule="evenodd" d="M2.47159 20H1.25C0.559644 20 0 19.4403 0 18.75V9.74998C0 9.05962 0.559644 8.49998 1.25 8.49998H11.125C11.8154 8.49998 12.375 9.05962 12.375 9.74998V18.75C12.375 19.4403 11.8154 20 11.125 20H9.90341V27.75C9.90341 28.4403 9.34377 29 8.65341 29H3.72159C3.03123 29 2.47159 28.4403 2.47159 27.75V20ZM1.25 9.24998C0.973858 9.24998 0.75 9.47383 0.75 9.74998V18.75C0.75 19.0261 0.973858 19.25 1.25 19.25H2.625V11.2856C2.625 11.0785 2.79289 10.9106 3 10.9106C3.20711 10.9106 3.375 11.0785 3.375 11.2856V19.25H3.22159V27.75C3.22159 28.0261 3.44545 28.25 3.72159 28.25H5.8125V19.5356C5.8125 19.3285 5.98039 19.1606 6.1875 19.1606C6.39461 19.1606 6.5625 19.3285 6.5625 19.5356V28.25H8.65341C8.92955 28.25 9.15341 28.0261 9.15341 27.75V19.25H9V11.2856C9 11.0785 9.16789 10.9106 9.375 10.9106C9.58211 10.9106 9.75 11.0785 9.75 11.2856V19.25H11.125C11.4011 19.25 11.625 19.0261 11.625 18.75V9.74998C11.625 9.47383 11.4011 9.24998 11.125 9.24998H1.25ZM6 7.69397C3.927 7.69397 2.25 5.99769 2.25 3.90948C2.25 1.82128 3.927 0.125 6 0.125C8.073 0.125 9.75 1.82128 9.75 3.90948C9.75 5.99769 8.073 7.69397 6 7.69397ZM6 6.94397C7.65685 6.94397 9 5.58538 9 3.90948C9 2.23358 7.65685 0.875 6 0.875C4.34315 0.875 3 2.23358 3 3.90948C3 5.58538 4.34315 6.94397 6 6.94397Z" fill="#056DAE"/>
</svg>
