<svg width="44" height="34" viewBox="0 0 44 34" fill="none" xmlns="http://www.w3.org/2000/svg">
<path fill-rule="evenodd" clip-rule="evenodd" d="M1.12702 5.58635L1.05841 5.54061C0.939216 5.46115 0.856186 5.33787 0.827353 5.19755L0.0115388 1.22725C-0.0721596 0.819919 0.313661 0.47316 0.709783 0.599699L11.9669 4.19573C12.0668 3.99203 12.2847 3.86982 12.5139 3.89474L15.0158 4.16667C15.1625 4.18262 15.2964 4.2575 15.3868 4.37413L18.8577 8.85102L19.5181 7.92644C19.631 7.76835 19.8197 7.6825 20.013 7.70121L21.6991 7.86437C21.871 7.88101 22.0248 7.97833 22.1134 8.12657L25.323 13.4934L28.004 14.3028C28.2615 14.3805 28.4235 14.6348 28.3852 14.901L27.5078 20.9911L27.9998 21.3425C28.2038 21.4882 28.2818 21.7544 28.1887 21.9871L28.0994 22.2103L32.2223 26.6277L36.0003 25.8217C36.1173 25.7968 36.2334 25.8115 36.3348 25.8567C36.3511 25.715 36.4228 25.5814 36.5413 25.4892L37.3401 24.868L37.6402 22.2666C37.6663 22.0406 37.8303 21.8547 38.0514 21.8006L42.9462 20.6041C43.1001 20.5665 43.2626 20.5978 43.3915 20.6898L43.7722 20.9618C43.9485 21.0877 44.0332 21.3061 43.988 21.518L42.7915 27.1199C42.703 27.5339 42.1964 27.6926 41.8876 27.4031L41.4549 26.9974L41.2766 27.2291C41.2018 27.3263 41.0964 27.3954 40.9774 27.4251L38.1753 28.1257L38.1772 28.1427C38.1933 28.2877 38.1511 28.4244 38.0703 28.531L38.8171 29.4333C39.0608 29.7278 38.9327 30.1751 38.57 30.296L37.3364 30.7072L36.3439 33.0893C36.2219 33.382 35.8764 33.5088 35.5941 33.3643L31.1656 31.0986L29.7279 31.8406C29.5701 31.9221 29.3824 31.9213 29.2253 31.8386C29.2253 31.8386 16.3002 25.508 15.9504 25.3239C15.6006 25.1399 14.2567 23.502 14.5687 23.2593L14.7062 23.1524L14.6881 23.1161C14.5834 22.9067 14.6244 22.6538 14.79 22.4882L15.1745 22.1037V21.974L9.36338 14.6167C9.24977 14.4729 9.21625 14.2815 9.27421 14.1076L9.52567 13.3532L9.43953 13.1953L9.37444 13.1844C9.24226 13.1624 9.12286 13.0924 9.03916 12.9877L7.9514 11.628C7.86696 11.5225 7.82485 11.3892 7.83328 11.2543L7.85988 10.8288L7.47454 10.726C7.32063 10.685 7.19244 10.5785 7.12383 10.4348L5.3267 6.66935L8.34661 15.4626C8.41389 15.6585 8.36364 15.8735 8.22154 16.0191L8.25878 16.106L8.53411 16.131C8.70971 16.147 8.86667 16.2471 8.95521 16.3995L9.93419 18.0856C10.0679 18.3159 10.0152 18.6092 9.8096 18.7785L8.88501 19.5399C8.65363 19.7305 8.3117 19.6979 8.12047 19.4671L4.96598 15.6599C4.79466 15.4532 4.79988 15.1523 4.97828 14.9516L5.24963 14.6463L5.0861 13.3381L1.73999 10.0442C1.32933 9.63999 1.74685 8.95845 2.29351 9.14067L2.89561 9.34137L3.0952 9.24157L3.12465 9.05017L1.2091 6.68094C1.12467 6.5765 1.08185 6.44452 1.08891 6.31041L1.12702 5.58635ZM1.84827 4.75875L1.98855 4.85227C2.14831 4.95878 2.24008 5.14164 2.22998 5.33339L2.18656 6.15844L4.12214 8.55244C4.21843 8.67153 4.26004 8.82571 4.23675 8.97708L4.12798 9.68412C4.10115 9.85847 3.99144 10.009 3.83366 10.0879L3.50375 10.2528L5.98431 12.6946C6.07154 12.7805 6.12726 12.8933 6.14244 13.0148L6.35999 14.7552C6.37942 14.9106 6.33089 15.0669 6.22682 15.184L6.10184 15.3246L8.61253 18.3547L8.76206 18.2316L8.15612 17.188L7.83781 17.1591C7.63886 17.141 7.46584 17.0153 7.38715 16.8317L7.06082 16.0702C6.96913 15.8563 7.02409 15.6091 7.19429 15.4541L3.61992 5.04636C3.44385 4.53369 4.04409 4.10715 4.47032 4.44204L5.05337 4.90015L5.26337 4.8739C5.49582 4.84484 5.72076 4.9679 5.82167 5.17931L7.99781 9.73886L8.57106 9.89172C8.82141 9.95848 8.9899 10.1926 8.97374 10.4512L8.93246 11.1117L9.75898 12.1449L9.88002 12.165C10.0449 12.1925 10.188 12.2943 10.2681 12.4411L10.5944 13.0393C10.6667 13.1719 10.6806 13.3285 10.6329 13.4718L10.3995 14.1721L16.1457 21.4471C16.2215 21.5431 16.2627 21.6619 16.2627 21.7842V22.3281C16.2627 22.4724 16.2054 22.6107 16.1034 22.7127L15.8368 22.9794L15.879 23.0639C15.9627 23.2312 15.9527 23.4243 15.8638 23.5787C15.8638 23.5787 15.9508 23.6731 17.0508 24.7731C18.1508 25.8731 29.4813 30.7432 29.4813 30.7432L30.9155 30.003C31.0714 29.9225 31.2565 29.9222 31.4127 30.0021L35.5664 32.1273L36.428 30.0595C36.4885 29.9144 36.6088 29.8025 36.758 29.7527L37.4733 29.5143L36.6742 28.5487C36.392 28.2077 36.6144 27.6989 37.0412 27.6604C37.0628 27.4353 37.2237 27.2416 37.4508 27.1849L40.5303 26.415L40.9587 25.858C41.1546 25.6034 41.5274 25.5731 41.7618 25.7929L41.9293 25.9499L42.8258 21.7526L38.6778 22.7665L38.3949 25.2186C38.3782 25.3637 38.3038 25.4959 38.1885 25.5856L37.5409 26.0893C37.6592 26.3733 37.5185 26.6994 37.2298 26.8077L36.3596 27.134C36.1393 27.2166 35.9039 27.1469 35.7604 26.9844L32.1486 27.7549C31.9618 27.7948 31.7678 27.7337 31.6375 27.5941L27.069 22.6992C26.9252 22.5451 26.8833 22.3218 26.9616 22.1261L27.0206 21.9787L26.6066 21.6829C26.4411 21.5647 26.3554 21.3641 26.3844 21.1628L27.2423 15.2081L24.8076 14.4731C24.6779 14.434 24.5675 14.3478 24.498 14.2316L21.3213 8.91978L20.2212 8.81332L19.5879 9.69999C19.525 9.78794 19.4374 9.85517 19.3362 9.89312L18.9011 10.0563C18.678 10.14 18.4264 10.0686 18.2803 9.88027L14.6691 5.22228L12.8166 5.02092L12.8017 5.06067C12.6999 5.33211 12.4031 5.476 12.1269 5.38779L1.26453 1.91785L1.84827 4.75875Z" fill="#5C5F66"/>
</svg>
