<svg viewBox="0 0 337 153" fill="none" xmlns="http://www.w3.org/2000/svg">
<path fill-rule="evenodd" clip-rule="evenodd" d="M150.632 54.6722L155.953 53.8737L199.332 68.3827L176.204 71.8554L150.632 54.6722Z" fill="#0E2A48"/>
<mask id="mask0" mask-type="alpha" maskUnits="userSpaceOnUse" x="2" y="0" width="331" height="122">
<path fill-rule="evenodd" clip-rule="evenodd" d="M2.94531 34.4354L323.81 0.711183L332.988 88.0322L12.1231 121.756L2.94531 34.4354Z" fill="white"/>
</mask>
<g mask="url(#mask0)">
<path fill-rule="evenodd" clip-rule="evenodd" d="M14.4546 33.2256L48.9385 71.4164C66.3752 81.4472 110.468 74.8835 116.55 73.9781C128.708 72.1684 270.754 51.0238 285.917 48.7671C292.58 47.7753 317.526 56.8357 327.954 60.5467C330.916 61.6 331.329 65.6545 328.795 67.6723C297.763 92.3879 100.086 112.504 100.086 112.504C48.5374 118.457 25.1445 92.297 22.9765 85.1847L2.99746 34.9315L14.4546 33.2256Z" fill="#00B0B9"/>
</g>
<path fill-rule="evenodd" clip-rule="evenodd" d="M290.985 59.4993C289.557 59.712 288.259 58.6705 288.087 57.1731C287.915 55.6757 288.934 54.2892 290.362 54.0765L303.164 52.1712C307.012 53.3271 311.048 54.6505 314.855 55.9465L290.985 59.4993Z" fill="#DCFDFF"/>
<path fill-rule="evenodd" clip-rule="evenodd" d="M161.52 78.0817C161.345 76.5544 160.048 75.4876 158.625 75.6992C157.201 75.9114 156.189 77.3219 156.365 78.8491C156.54 80.3768 157.836 81.4432 159.26 81.2315C160.684 81.0193 161.695 79.6094 161.52 78.0817Z" fill="#DBFDFF"/>
<path fill-rule="evenodd" clip-rule="evenodd" d="M109.619 85.8075C109.444 84.2802 108.147 83.2134 106.724 83.425C105.3 83.6373 104.288 85.0477 104.463 86.575C104.639 88.1026 105.935 89.169 107.359 88.9568C108.783 88.7452 109.795 87.3352 109.619 85.8075Z" fill="#DBFDFF"/>
<path fill-rule="evenodd" clip-rule="evenodd" d="M178.82 75.5064C178.645 73.9787 177.348 72.9124 175.925 73.124C174.501 73.3357 173.489 74.7462 173.664 76.2739C173.84 77.8011 175.136 78.8675 176.56 78.6563C177.984 78.4436 178.996 77.0336 178.82 75.5064Z" fill="#DBFDFF"/>
<path fill-rule="evenodd" clip-rule="evenodd" d="M144.22 80.6571C144.044 79.1293 142.748 78.0624 141.324 78.2746C139.9 78.4869 138.888 79.8968 139.064 81.4246C139.24 82.9523 140.536 84.0181 141.96 83.8064C143.383 83.5942 144.395 82.1848 144.22 80.6571Z" fill="#DBFDFF"/>
<path fill-rule="evenodd" clip-rule="evenodd" d="M126.919 83.2323C126.744 81.7045 125.448 80.6382 124.024 80.8498C122.601 81.062 121.589 82.472 121.764 83.9997C121.939 85.5275 123.236 86.5938 124.659 86.3816C126.083 86.1694 127.095 84.76 126.919 83.2323Z" fill="#DBFDFF"/>
<path fill-rule="evenodd" clip-rule="evenodd" d="M196.12 72.931C195.946 71.4037 194.649 70.3369 193.225 70.5491C191.802 70.7607 190.79 72.1707 190.965 73.6984C191.141 75.2262 192.437 76.2925 193.86 76.0803C195.285 75.8687 196.296 74.4588 196.12 72.931Z" fill="#DBFDFF"/>
<path fill-rule="evenodd" clip-rule="evenodd" d="M213.421 70.356C213.246 68.8288 211.949 67.762 210.526 67.9736C209.102 68.1858 208.09 69.5958 208.265 71.1235C208.441 72.6512 209.737 73.717 211.161 73.5054C212.584 73.2937 213.596 71.8833 213.421 70.356Z" fill="#DBFDFF"/>
<path fill-rule="evenodd" clip-rule="evenodd" d="M230.722 67.7806C230.546 66.2529 229.25 65.1865 227.826 65.3982C226.402 65.6104 225.39 67.0203 225.566 68.5481C225.742 70.0758 227.038 71.1422 228.462 70.9299C229.885 70.7178 230.897 69.3084 230.722 67.7806Z" fill="#DBFDFF"/>
<path fill-rule="evenodd" clip-rule="evenodd" d="M248.021 65.2054C247.846 63.6777 246.55 62.6113 245.126 62.823C243.702 63.0352 242.69 64.4451 242.866 65.9729C243.041 67.5001 244.337 68.5665 245.761 68.3548C247.185 68.1426 248.197 66.7326 248.021 65.2054Z" fill="#DBFDFF"/>
<path fill-rule="evenodd" clip-rule="evenodd" d="M265.322 62.6302C265.146 61.1025 263.849 60.0362 262.426 60.2478C261.002 60.4595 259.99 61.87 260.166 63.3977C260.341 64.9249 261.638 65.9913 263.061 65.7796C264.485 65.5674 265.497 64.1569 265.322 62.6302Z" fill="#DBFDFF"/>
<path fill-rule="evenodd" clip-rule="evenodd" d="M7.6426 105.124L17.9889 103.583L48.9106 82.6649L24.3374 86.3228L7.6426 105.124Z" fill="#0E2A48"/>
<path opacity="0.229306" fill-rule="evenodd" clip-rule="evenodd" d="M138.548 94.6251C147.091 93.0137 155.719 91.9092 164.275 90.9935L150.498 106.509C120.902 110.279 99.7056 112.435 99.7056 112.435C63.2948 116.641 40.9316 104.819 30.1779 95.0103L31.404 94.1843C39.0335 96.533 46.8364 98.2322 54.7284 99.2634C62.6144 100.29 70.5955 100.653 78.576 100.33C96.4895 99.6055 120.466 98.035 138.548 94.6251Z" fill="#3789B7"/>
<path opacity="0.229306" fill-rule="evenodd" clip-rule="evenodd" d="M328.415 67.6055C311.404 81.1504 244.311 93.3177 187.159 101.548L210.969 85.4383C215.129 84.6717 219.17 83.764 223.066 82.674C230.85 80.489 238.748 78.6984 246.689 77.1612C266.156 73.3917 299.557 66.0554 317.886 57.0539C321.659 58.3588 325.044 59.5783 327.572 60.4763C330.535 61.5316 330.949 65.5827 328.415 67.6055Z" fill="#3789B7"/>
<path d="M314.778 56.1784C314.778 56.1784 312.979 66.7962 317.907 73.688" stroke="#007377"/>
<path d="M311.729 71.5931C311.729 71.5931 283.646 86.62 137.183 104.209L86.6554 109.52" stroke="#007377"/>
<path d="M135.985 92.809L134.282 76.6099C134.112 74.9954 135.695 73.5073 137.811 73.2921L144.302 72.6323C146.406 72.4184 148.241 73.5427 148.41 75.1475L150.11 91.3243" stroke="#007377"/>
<path d="M239.849 77.5694L238.146 61.3703C237.977 59.7558 239.559 58.2677 241.675 58.0525L248.167 57.3927C250.27 57.1788 252.106 58.3031 252.274 59.9079L253.975 76.0847" stroke="#007377"/>
<path d="M9.75098 33.9259L40.1288 68.9339C41.8664 70.9364 44.4732 71.9643 47.1115 71.687L47.7911 71.6156" stroke="#007377"/>
<path fill-rule="evenodd" clip-rule="evenodd" d="M200.692 102.146L202.021 120.029C201.238 120.504 200.379 120.876 199.468 121.129L198.169 101.467C199.052 101.578 199.896 101.81 200.692 102.146" fill="#007377"/>
<path fill-rule="evenodd" clip-rule="evenodd" d="M198.169 101.467L199.469 121.129C198.787 121.319 198.065 121.441 197.322 121.473L179.677 122.404L179.626 121.413L178.623 102.33L196.326 101.393C196.945 101.36 197.564 101.381 198.169 101.467" fill="#00B0B9"/>
<path fill-rule="evenodd" clip-rule="evenodd" d="M179.68 122.408L167.761 117.831C165.761 117.063 164.427 115.16 164.389 113.019C164.353 111.024 165.449 109.181 167.22 108.26L178.619 102.329L179.68 122.408Z" fill="#007377"/>
<path fill-rule="evenodd" clip-rule="evenodd" d="M216.436 81.7405L210.969 85.4383L187.158 101.547C174.193 103.41 161.17 105.831 149.928 107.265L164.275 90.9937L165.797 89.2804L216.436 81.7405Z" fill="#0E2A48"/>
<path fill-rule="evenodd" clip-rule="evenodd" d="M187.159 101.547L131.7 139.063L120.05 140.798L150.498 106.51C161.74 105.075 174.193 103.41 187.159 101.547Z" fill="#0E2A48"/>
</svg>
