<svg width="21" height="21" viewBox="0 0 21 21" fill="none" xmlns="http://www.w3.org/2000/svg">
<path fill-rule="evenodd" clip-rule="evenodd" d="M4.03826 13.1255C4.94078 13.1255 5.78694 13.432 6.46702 13.989C6.54409 14.0521 6.60158 14.1303 6.63872 14.2158C7.7832 13.5167 9.11233 13.1255 10.4998 13.1255C11.8784 13.1255 13.1915 13.5021 14.3247 14.1798C14.3619 14.0946 14.4212 14.0166 14.5001 13.9543C15.1801 13.4177 16.0503 13.1255 16.9613 13.1255C18.3674 13.1255 19.6439 13.8638 20.3152 15.0478C20.4802 15.3388 20.3781 15.7085 20.0871 15.8736C19.796 16.0386 19.4263 15.9364 19.2613 15.6454C18.8058 14.8421 17.9326 14.337 16.9613 14.337C16.3388 14.337 15.7517 14.5275 15.295 14.8712C16.016 15.4764 16.6276 16.2207 17.0905 17.078C17.2495 17.3724 17.1397 17.7399 16.8453 17.8989C16.551 18.0578 16.1834 17.948 16.0245 17.6537C14.922 15.6121 12.8225 14.337 10.4998 14.337C8.20061 14.337 6.08605 15.6251 4.97343 17.6568C4.81273 17.9502 4.44458 18.0578 4.15115 17.8972C3.85771 17.7365 3.7501 17.3683 3.91079 17.0749C4.36915 16.2379 4.97118 15.5067 5.67663 14.9085L5.69937 14.9263C5.23435 14.5455 4.65896 14.337 4.03826 14.337C3.07776 14.337 2.19676 14.8481 1.73648 15.6486C1.56971 15.9386 1.19941 16.0385 0.909377 15.8717C0.619349 15.705 0.519428 15.3347 0.686197 15.0446C1.36234 13.8688 2.64359 13.1255 4.03826 13.1255ZM16.9613 7.4716C18.188 7.4716 19.1825 8.46605 19.1825 9.69276C19.1825 10.9195 18.188 11.9139 16.9613 11.9139C15.7346 11.9139 14.7402 10.9195 14.7402 9.69276C14.7402 8.46605 15.7346 7.4716 16.9613 7.4716ZM4.03826 7.4716C5.26497 7.4716 6.25942 8.46605 6.25942 9.69276C6.25942 10.9195 5.26497 11.9139 4.03826 11.9139C2.81155 11.9139 1.81711 10.9195 1.81711 9.69276C1.81711 8.46605 2.81155 7.4716 4.03826 7.4716ZM10.4998 3.0293C12.8417 3.0293 14.7402 4.92778 14.7402 7.26968C14.7402 9.61158 12.8417 11.5101 10.4998 11.5101C8.1579 11.5101 6.25942 9.61158 6.25942 7.26968C6.25942 4.92778 8.1579 3.0293 10.4998 3.0293ZM16.9613 8.68314C16.4037 8.68314 15.9517 9.13516 15.9517 9.69276C15.9517 10.2504 16.4037 10.7024 16.9613 10.7024C17.5189 10.7024 17.971 10.2504 17.971 9.69276C17.971 9.13516 17.5189 8.68314 16.9613 8.68314ZM4.03826 8.68314C3.48067 8.68314 3.02865 9.13516 3.02865 9.69276C3.02865 10.2504 3.48067 10.7024 4.03826 10.7024C4.59586 10.7024 5.04788 10.2504 5.04788 9.69276C5.04788 9.13516 4.59586 8.68314 4.03826 8.68314ZM10.4998 4.24084C8.82702 4.24084 7.47096 5.5969 7.47096 7.26968C7.47096 8.94247 8.82702 10.2985 10.4998 10.2985C12.1726 10.2985 13.5286 8.94247 13.5286 7.26968C13.5286 5.5969 12.1726 4.24084 10.4998 4.24084Z" fill="#5C5F66"/>
<mask id="mask0" mask-type="alpha" maskUnits="userSpaceOnUse" x="0" y="3" width="21" height="15">
<path fill-rule="evenodd" clip-rule="evenodd" d="M4.03826 13.1255C4.94078 13.1255 5.78694 13.432 6.46702 13.989C6.54409 14.0521 6.60158 14.1303 6.63872 14.2158C7.7832 13.5167 9.11233 13.1255 10.4998 13.1255C11.8784 13.1255 13.1915 13.5021 14.3247 14.1798C14.3619 14.0946 14.4212 14.0166 14.5001 13.9543C15.1801 13.4177 16.0503 13.1255 16.9613 13.1255C18.3674 13.1255 19.6439 13.8638 20.3152 15.0478C20.4802 15.3388 20.3781 15.7085 20.0871 15.8736C19.796 16.0386 19.4263 15.9364 19.2613 15.6454C18.8058 14.8421 17.9326 14.337 16.9613 14.337C16.3388 14.337 15.7517 14.5275 15.295 14.8712C16.016 15.4764 16.6276 16.2207 17.0905 17.078C17.2495 17.3724 17.1397 17.7399 16.8453 17.8989C16.551 18.0578 16.1834 17.948 16.0245 17.6537C14.922 15.6121 12.8225 14.337 10.4998 14.337C8.20061 14.337 6.08605 15.6251 4.97343 17.6568C4.81273 17.9502 4.44458 18.0578 4.15115 17.8972C3.85771 17.7365 3.7501 17.3683 3.91079 17.0749C4.36915 16.2379 4.97118 15.5067 5.67663 14.9085L5.69937 14.9263C5.23435 14.5455 4.65896 14.337 4.03826 14.337C3.07776 14.337 2.19676 14.8481 1.73648 15.6486C1.56971 15.9386 1.19941 16.0385 0.909377 15.8717C0.619349 15.705 0.519428 15.3347 0.686197 15.0446C1.36234 13.8688 2.64359 13.1255 4.03826 13.1255ZM16.9613 7.4716C18.188 7.4716 19.1825 8.46605 19.1825 9.69276C19.1825 10.9195 18.188 11.9139 16.9613 11.9139C15.7346 11.9139 14.7402 10.9195 14.7402 9.69276C14.7402 8.46605 15.7346 7.4716 16.9613 7.4716ZM4.03826 7.4716C5.26497 7.4716 6.25942 8.46605 6.25942 9.69276C6.25942 10.9195 5.26497 11.9139 4.03826 11.9139C2.81155 11.9139 1.81711 10.9195 1.81711 9.69276C1.81711 8.46605 2.81155 7.4716 4.03826 7.4716ZM10.4998 3.0293C12.8417 3.0293 14.7402 4.92778 14.7402 7.26968C14.7402 9.61158 12.8417 11.5101 10.4998 11.5101C8.1579 11.5101 6.25942 9.61158 6.25942 7.26968C6.25942 4.92778 8.1579 3.0293 10.4998 3.0293ZM16.9613 8.68314C16.4037 8.68314 15.9517 9.13516 15.9517 9.69276C15.9517 10.2504 16.4037 10.7024 16.9613 10.7024C17.5189 10.7024 17.971 10.2504 17.971 9.69276C17.971 9.13516 17.5189 8.68314 16.9613 8.68314ZM4.03826 8.68314C3.48067 8.68314 3.02865 9.13516 3.02865 9.69276C3.02865 10.2504 3.48067 10.7024 4.03826 10.7024C4.59586 10.7024 5.04788 10.2504 5.04788 9.69276C5.04788 9.13516 4.59586 8.68314 4.03826 8.68314ZM10.4998 4.24084C8.82702 4.24084 7.47096 5.5969 7.47096 7.26968C7.47096 8.94247 8.82702 10.2985 10.4998 10.2985C12.1726 10.2985 13.5286 8.94247 13.5286 7.26968C13.5286 5.5969 12.1726 4.24084 10.4998 4.24084Z" fill="white"/>
</mask>
<g mask="url(#mask0)">
</g>
</svg>
