<svg width="17" height="17" viewBox="0 0 17 17" fill="none" xmlns="http://www.w3.org/2000/svg">
<path fill-rule="evenodd" clip-rule="evenodd" d="M8.96573 13.1009C8.67441 12.9478 8.32637 12.9478 8.03505 13.1009L5.42259 14.4744C4.68896 14.8601 3.83153 14.2371 3.97164 13.4202L4.47058 10.5112C4.52622 10.1868 4.41867 9.85581 4.18298 9.62607L2.06946 7.5659C1.47594 6.98736 1.80345 5.97939 2.62367 5.8602L5.54449 5.43578C5.8702 5.38846 6.15176 5.18389 6.29743 4.88874L7.60366 2.24203C7.97047 1.49879 9.03031 1.49879 9.39713 2.24203L10.7034 4.88874C10.849 5.18389 11.1306 5.38846 11.4563 5.43578L14.3771 5.8602C15.1973 5.97939 15.5248 6.98736 14.9313 7.5659L12.8178 9.62607C12.5821 9.85581 12.4746 10.1868 12.5302 10.5112L13.0291 13.4202C13.1692 14.2371 12.3118 14.8601 11.5782 14.4744L8.96573 13.1009Z" fill="white"/>
</svg>
