<svg width="174" height="168" viewBox="0 0 174 168" fill="none" xmlns="http://www.w3.org/2000/svg">
<path fill-rule="evenodd" clip-rule="evenodd" d="M117.18 43.6527C124.145 59.6802 140.094 67.8844 148.678 71.2596C156.078 74.1674 162.173 79.7407 166.038 87.4082C170.583 96.4086 172.62 109.217 162.504 124.414C142.288 154.824 88.7643 151.068 88.7643 151.068C88.7643 151.068 22.2859 160.796 8.13008 117.957C-6.02573 75.1193 29.2853 -4.32615 69.6286 1.28184C104.957 6.19741 113.768 32.0561 115.404 38.4083C115.892 40.2257 116.449 41.9911 117.18 43.6527Z" fill="#EDF8FE"/>
<mask id="mask0" mask-type="alpha" maskUnits="userSpaceOnUse" x="5" y="1" width="165" height="151">
<path fill-rule="evenodd" clip-rule="evenodd" d="M65.5399 1.06201C26.9867 1.09533 -5.4676 76.5867 8.19323 117.941C22.3349 160.75 88.7471 151.029 88.7471 151.029C88.7471 151.029 142.218 154.783 162.413 124.392C172.519 109.206 170.484 96.4061 165.944 87.4119C162.082 79.7497 155.994 74.1801 148.602 71.2741C140.026 67.9014 124.093 59.7027 117.135 43.6859C116.404 42.0255 115.848 40.2612 115.361 38.445C113.726 32.0972 104.924 6.25587 69.6305 1.34362C68.2751 1.15527 66.9295 1.06285 65.5871 1.06201" fill="white"/>
</mask>
<g mask="url(#mask0)">
<path fill-rule="evenodd" clip-rule="evenodd" d="M101.781 97.2398H105.41V13.3413H101.781V97.2398Z" fill="#D6EDFB"/>
<path fill-rule="evenodd" clip-rule="evenodd" d="M-1.5246 96.9058V100.535L173.182 100.535V96.9058L-1.5246 96.9058Z" fill="#D6EDFB"/>
</g>
<mask id="mask1" mask-type="alpha" maskUnits="userSpaceOnUse" x="5" y="1" width="165" height="151">
<path fill-rule="evenodd" clip-rule="evenodd" d="M65.5399 1.06201C26.9867 1.09533 -5.4676 76.5867 8.19323 117.941C22.3349 160.75 88.7471 151.029 88.7471 151.029C88.7471 151.029 142.218 154.783 162.413 124.392C172.519 109.206 170.484 96.4061 165.944 87.4119C162.082 79.7497 155.994 74.1801 148.602 71.2741C140.026 67.9014 124.093 59.7027 117.135 43.6859C116.404 42.0255 115.848 40.2612 115.361 38.445C113.726 32.0972 104.924 6.25587 69.6305 1.34362C68.2751 1.15527 66.9295 1.06285 65.5871 1.06201H65.5399Z" fill="white"/>
</mask>
<g mask="url(#mask1)">
<path fill-rule="evenodd" clip-rule="evenodd" d="M153.498 83.8128H156.281V81.0293H153.498V83.8128Z" fill="#CBE7F8"/>
<path fill-rule="evenodd" clip-rule="evenodd" d="M135.869 83.8128H138.653V81.0293H135.869V83.8128Z" fill="#CBE7F8"/>
<path fill-rule="evenodd" clip-rule="evenodd" d="M117.314 83.8128H120.098V81.0293H117.314V83.8128Z" fill="#CBE7F8"/>
<path fill-rule="evenodd" clip-rule="evenodd" d="M108.963 96.8021H111.746V87.5239H108.963V96.8021Z" fill="#CBE7F8"/>
<path fill-rule="evenodd" clip-rule="evenodd" d="M107.107 97.7301H113.602V96.8022H107.107V97.7301Z" fill="#CBE7F8"/>
<path fill-rule="evenodd" clip-rule="evenodd" d="M133.054 68.0398H141.88C142.645 68.0398 143.303 68.5833 143.448 69.3359L145.099 77.8889C145.413 79.5173 144.168 81.0293 142.512 81.0293H132.011C130.305 81.0293 129.049 79.4308 129.45 77.7701L131.502 69.2639C131.675 68.5457 132.316 68.0398 133.054 68.0398Z" fill="#CBE7F8"/>
<path fill-rule="evenodd" clip-rule="evenodd" d="M115.425 68.0398H124.251C125.016 68.0398 125.674 68.5833 125.819 69.3359L127.47 77.8889C127.785 79.5173 126.539 81.0293 124.883 81.0293H114.382C112.677 81.0293 111.42 79.4308 111.821 77.7701L113.873 69.2639C114.046 68.5457 114.688 68.0398 115.425 68.0398Z" fill="#CBE7F8"/>
<path fill-rule="evenodd" clip-rule="evenodd" d="M150.683 68.0398H159.509C160.274 68.0398 160.931 68.5833 161.077 69.3359L162.728 77.8889C163.042 79.5173 161.797 81.0293 160.141 81.0293H149.64C147.934 81.0293 146.678 79.4308 147.079 77.7701L149.13 69.2639C149.304 68.5457 149.945 68.0398 150.683 68.0398Z" fill="#CBE7F8"/>
<path fill-rule="evenodd" clip-rule="evenodd" d="M182.143 87.524H108.153C107.063 87.524 106.18 86.6932 106.18 85.6684C106.18 84.6435 107.063 83.8127 108.153 83.8127H182.143C183.233 83.8127 184.116 84.6435 184.116 85.6684C184.116 86.6932 183.233 87.524 182.143 87.524Z" fill="#CAE7F9"/>
<path fill-rule="evenodd" clip-rule="evenodd" d="M-12.8184 50.3523L52.3171 51.4953C54.6983 51.5371 56.5183 53.1248 56.2478 54.9243L55.8665 57.4613C55.744 58.2769 55.1991 59.0217 54.3511 59.5297C48.9421 62.7702 27.5178 74.1464 -1.04496 70.2929" fill="#D1EDFF"/>
<path fill-rule="evenodd" clip-rule="evenodd" d="M26.6641 51.7135L53.7528 20.741H65.1587L53.5444 52.3263L26.6641 51.7135Z" fill="#C3E0F3"/>
<path fill-rule="evenodd" clip-rule="evenodd" d="M39.4941 51.9122V53.8226L51.1565 57.2614L72.0665 56.3062L63.8419 51.3391L39.4941 51.9122Z" fill="#CAE7F9"/>
<path fill-rule="evenodd" clip-rule="evenodd" d="M27.6513 59.2356C27.6513 60.3258 26.7674 61.2096 25.6772 61.2096C24.5869 61.2096 23.7031 60.3258 23.7031 59.2356C23.7031 58.1452 24.5869 57.2615 25.6772 57.2615C26.7674 57.2615 27.6513 58.1452 27.6513 59.2356Z" fill="white"/>
<path fill-rule="evenodd" clip-rule="evenodd" d="M19.7548 59.2356C19.7548 60.3258 18.8709 61.2096 17.7807 61.2096C16.6904 61.2096 15.8066 60.3258 15.8066 59.2356C15.8066 58.1452 16.6904 57.2615 17.7807 57.2615C18.8709 57.2615 19.7548 58.1452 19.7548 59.2356Z" fill="white"/>
<path opacity="0.590797" fill-rule="evenodd" clip-rule="evenodd" d="M29.5996 97.1157H33.2285V9.26904H29.5996V97.1157Z" fill="#CAE7F9"/>
</g>
<path fill-rule="evenodd" clip-rule="evenodd" d="M52.7051 100.091L53.0831 116.252C53.0831 116.252 54.2494 115.323 54.4386 113.528C54.6279 111.732 54.8167 100.927 54.155 100.277C53.4928 99.6266 52.7051 100.091 52.7051 100.091Z" fill="white"/>
<path fill-rule="evenodd" clip-rule="evenodd" d="M59.7552 26.6631H59.3204C58.5709 26.6631 57.9629 27.2573 57.9629 27.991V78.6054H59.7552V26.6631Z" fill="#1A2E52"/>
<path fill-rule="evenodd" clip-rule="evenodd" d="M73.8119 26.6631H73.377V78.6054H75.1693V27.991C75.1693 27.2573 74.5616 26.6631 73.8119 26.6631Z" fill="#1A2E52"/>
<path fill-rule="evenodd" clip-rule="evenodd" d="M75.1692 29.0458H58.082V28.4675C58.082 27.4714 58.8761 26.6631 59.8558 26.6631H73.3954C74.3751 26.6631 75.1692 27.4714 75.1692 28.4675V29.0458Z" fill="#1A2E52"/>
<path fill-rule="evenodd" clip-rule="evenodd" d="M51.4089 120.183C48.0991 120.183 45.416 117.5 45.416 114.191V68.9907C45.416 65.6813 48.0991 62.999 51.4089 62.999H75.9873C79.2971 62.999 81.9802 65.6813 81.9802 68.9907V114.191C81.9802 117.5 79.2971 120.183 75.9873 120.183H51.4089Z" fill="#007377"/>
<path fill-rule="evenodd" clip-rule="evenodd" d="M58.698 120.183C55.3882 120.183 52.7051 117.5 52.7051 114.191V68.9907C52.7051 65.6813 55.3882 62.999 58.698 62.999H83.2764C86.5862 62.999 89.2693 65.6813 89.2693 68.9907V114.191C89.2693 117.5 86.5862 120.183 83.2764 120.183H58.698Z" fill="#00B0B9"/>
<path fill-rule="evenodd" clip-rule="evenodd" d="M58.2009 121.672C58.2009 122.56 57.4785 123.281 56.5877 123.281C55.6969 123.281 54.9746 122.56 54.9746 121.672C54.9746 120.784 55.6969 120.064 56.5877 120.064C57.4785 120.064 58.2009 120.784 58.2009 121.672Z" fill="#1A2E52"/>
<path fill-rule="evenodd" clip-rule="evenodd" d="M51.2712 121.672C51.2712 122.56 50.5489 123.281 49.658 123.281C48.7672 123.281 48.0449 122.56 48.0449 121.672C48.0449 120.784 48.7672 120.064 49.658 120.064C50.5489 120.064 51.2712 120.784 51.2712 121.672Z" fill="#1A2E52"/>
<path fill-rule="evenodd" clip-rule="evenodd" d="M86.0427 121.672C86.0427 122.56 85.3204 123.281 84.4295 123.281C83.5387 123.281 82.8164 122.56 82.8164 121.672C82.8164 120.784 83.5387 120.064 84.4295 120.064C85.3204 120.064 86.0427 120.784 86.0427 121.672Z" fill="#1A2E52"/>
<path fill-rule="evenodd" clip-rule="evenodd" d="M79.113 121.672C79.113 122.56 78.3907 123.281 77.4998 123.281C76.609 123.281 75.8867 122.56 75.8867 121.672C75.8867 120.784 76.609 120.064 77.4998 120.064C78.3907 120.064 79.113 120.784 79.113 121.672Z" fill="#1A2E52"/>
<path opacity="0.224726" fill-rule="evenodd" clip-rule="evenodd" d="M54.9361 114.295C54.9361 114.295 54.1996 66.6115 55.5548 65.4847C56.9099 64.3579 84.4016 64.1327 86.0136 64.8089C87.6257 65.4847 88.5433 99.5103 82.8337 108.636C77.1235 117.763 54.9361 114.295 54.9361 114.295Z" fill="white"/>
<path fill-rule="evenodd" clip-rule="evenodd" d="M50.2491 120.183C49.699 120.133 48.8318 119.504 48.7488 118.493C48.725 118.202 48.63 109.249 48.644 91.851C48.6544 79.2819 48.6947 65.4616 48.7394 64.9234C48.8318 63.8029 50.1656 63.0991 50.3584 62.999L51.3418 63.0165C50.8862 63.2536 49.2999 64.2511 49.2408 64.9654C49.2025 65.4296 49.1588 77.8917 49.1474 91.6339C49.1344 107.573 49.1677 117.793 49.2348 118.361C49.3213 119.433 50.672 120.168 51.7493 120.168L50.2491 120.183Z" fill="white"/>
<path opacity="0.153088" fill-rule="evenodd" clip-rule="evenodd" d="M85.403 125.367C58.4189 125.367 39.4941 124.704 39.4941 123.886C39.4941 123.069 61.3686 122.406 88.3527 122.406C115.336 122.406 137.211 123.069 137.211 123.886C137.211 124.704 112.387 125.367 85.403 125.367Z" fill="#007377"/>
<path fill-rule="evenodd" clip-rule="evenodd" d="M102.709 94.2457C102.709 94.2457 103.254 88.4667 109.733 87.9137C116.211 87.3607 116.998 94.2457 116.998 94.2457L115.545 94.5512C115.545 94.5512 114.208 88.008 109.854 88.7134C105.498 89.4173 104.586 94.5512 104.586 94.5512L102.709 94.2457Z" fill="#1A2E52"/>
<path fill-rule="evenodd" clip-rule="evenodd" d="M123.42 123.189H96.2851C93.2921 123.189 90.8652 120.724 90.8652 117.683V98.7497C90.8652 95.7091 93.2921 93.2437 96.2851 93.2437H123.42C126.413 93.2437 128.84 95.7091 128.84 98.7497V117.683C128.84 120.724 126.413 123.189 123.42 123.189Z" fill="#04A1A9"/>
<path fill-rule="evenodd" clip-rule="evenodd" d="M92.2812 94.6781C92.2812 94.6781 125.559 94.3927 126.324 94.6781C127.089 94.9635 126.61 113.512 123.866 116.938C123.387 117.536 122.134 118.015 120.39 118.399C112.146 120.216 92.9463 119.899 92.9463 119.899L92.2812 94.6781Z" fill="#00B0B9"/>
<path fill-rule="evenodd" clip-rule="evenodd" d="M90.8652 100.566H128.84V99.6511H90.8652V100.566Z" fill="#1A2E52"/>
<path fill-rule="evenodd" clip-rule="evenodd" d="M98.332 102.79H100.263V98.2126H98.332V102.79Z" fill="white"/>
<path fill-rule="evenodd" clip-rule="evenodd" d="M120.344 102.79H122.275V98.2126H120.344V102.79Z" fill="white"/>
<mask id="mask2" mask-type="alpha" maskUnits="userSpaceOnUse" x="112" y="127" width="35" height="41">
<path fill-rule="evenodd" clip-rule="evenodd" d="M112 127.019H146.132V167.967H112V127.019Z" fill="white"/>
</mask>
<g mask="url(#mask2)">
<path fill-rule="evenodd" clip-rule="evenodd" d="M129.066 167.967C128.968 167.967 128.872 167.946 128.78 167.906C110.107 159.563 112.045 133.923 112.067 133.666C112.096 133.308 112.401 133.029 112.761 133.029C123.147 133.029 128.497 127.294 128.549 127.236C128.674 127.098 128.862 127.019 129.066 127.019C129.27 127.019 129.458 127.098 129.582 127.236C129.636 127.294 134.993 133.029 145.372 133.029C145.731 133.029 146.036 133.308 146.066 133.665C146.087 133.923 148.025 159.563 129.351 167.906C129.26 167.946 129.164 167.967 129.066 167.967Z" fill="white"/>
</g>
<mask id="mask3" mask-type="alpha" maskUnits="userSpaceOnUse" x="112" y="127" width="35" height="41">
<path fill-rule="evenodd" clip-rule="evenodd" d="M112 127.003H146.132V167.927H112V127.003Z" fill="white"/>
</mask>
<g mask="url(#mask3)">
<path fill-rule="evenodd" clip-rule="evenodd" d="M128.78 167.866C110.107 159.528 112.045 133.903 112.067 133.646C112.096 133.289 112.401 133.009 112.761 133.009C123.147 133.009 128.497 127.278 128.549 127.22C128.674 127.082 128.862 127.003 129.066 127.003C129.27 127.003 129.458 127.082 129.582 127.22C129.636 127.278 134.993 133.009 145.372 133.009C145.731 133.009 146.036 133.289 146.066 133.646C146.087 133.903 148.025 159.528 129.351 167.866C129.26 167.906 129.164 167.927 129.066 167.927C128.968 167.927 128.872 167.906 128.78 167.866Z" fill="url(#paint0_linear)"/>
</g>
<path fill-rule="evenodd" clip-rule="evenodd" d="M128.71 164.273C116.33 157.881 115.017 141.791 114.971 135.844C121.75 135.29 126.345 132.554 128.713 130.727C131.083 132.556 135.679 135.29 142.453 135.844C142.406 141.78 141.094 157.866 128.71 164.273Z" fill="#FFCE0E"/>
<path fill-rule="evenodd" clip-rule="evenodd" d="M129.084 134.455V160.545C137.617 155.356 139.754 144.927 140.225 138.496C135.481 137.692 131.781 136.068 129.085 134.455C129.085 134.455 129.084 134.455 129.084 134.455Z" fill="#FFDB4F"/>
<mask id="mask4" mask-type="alpha" maskUnits="userSpaceOnUse" x="71" y="127" width="35" height="41">
<path fill-rule="evenodd" clip-rule="evenodd" d="M71 127.019H105.986V167.967H71V127.019Z" fill="white"/>
</mask>
<g mask="url(#mask4)">
<path fill-rule="evenodd" clip-rule="evenodd" d="M88.493 167.967C88.3926 167.967 88.2941 167.946 88.1997 167.906C69.0601 159.563 71.0462 133.923 71.0683 133.666C71.0989 133.308 71.4115 133.029 71.7797 133.029C82.4254 133.029 87.9089 127.294 87.9632 127.236C88.0911 127.098 88.284 127.019 88.493 127.019C88.7016 127.019 88.8948 127.098 89.0219 127.236C89.077 127.294 94.5681 133.029 105.206 133.029C105.574 133.029 105.887 133.308 105.917 133.665C105.939 133.923 107.926 159.563 88.7851 167.906C88.6918 167.946 88.5931 167.967 88.493 167.967Z" fill="white"/>
</g>
<mask id="mask5" mask-type="alpha" maskUnits="userSpaceOnUse" x="71" y="127" width="35" height="41">
<path fill-rule="evenodd" clip-rule="evenodd" d="M71 127.003H105.986V167.927H71V127.003Z" fill="white"/>
</mask>
<g mask="url(#mask5)">
<path fill-rule="evenodd" clip-rule="evenodd" d="M88.1997 167.866C69.0601 159.528 71.0462 133.903 71.0683 133.646C71.0989 133.289 71.4115 133.009 71.7797 133.009C82.4254 133.009 87.9089 127.278 87.9632 127.22C88.0911 127.082 88.284 127.003 88.493 127.003C88.7016 127.003 88.8948 127.082 89.0219 127.22C89.077 127.278 94.5681 133.009 105.206 133.009C105.574 133.009 105.887 133.289 105.917 133.646C105.939 133.903 107.926 159.528 88.7851 167.866C88.6918 167.906 88.5931 167.927 88.493 167.927C88.3926 167.927 88.2941 167.906 88.1997 167.866Z" fill="url(#paint1_linear)"/>
</g>
<path fill-rule="evenodd" clip-rule="evenodd" d="M88.1366 164.273C75.3809 157.881 74.0282 141.791 73.9805 135.844C80.9655 135.29 85.6993 132.554 88.1388 130.727C90.5815 132.556 95.3164 135.29 102.295 135.844C102.247 141.78 100.896 157.866 88.1366 164.273Z" fill="#FFCE0E"/>
<path fill-rule="evenodd" clip-rule="evenodd" d="M88.8828 134.455V160.545C97.4435 155.356 99.5871 144.927 100.06 138.496C95.2999 137.692 91.5889 136.068 88.8842 134.455C88.8842 134.455 88.8831 134.455 88.8828 134.455Z" fill="#FFDB4F"/>
<mask id="mask6" mask-type="alpha" maskUnits="userSpaceOnUse" x="30" y="127" width="35" height="41">
<path fill-rule="evenodd" clip-rule="evenodd" d="M30 127.019H64.9856V167.967H30V127.019Z" fill="white"/>
</mask>
<g mask="url(#mask6)">
<path fill-rule="evenodd" clip-rule="evenodd" d="M47.493 167.967C47.3926 167.967 47.2941 167.946 47.1997 167.906C28.0601 159.563 30.0462 133.923 30.0683 133.666C30.0989 133.308 30.4115 133.029 30.7797 133.029C41.4254 133.029 46.9089 127.294 46.9632 127.236C47.0911 127.098 47.284 127.019 47.493 127.019C47.7016 127.019 47.8948 127.098 48.0219 127.236C48.077 127.294 53.5681 133.029 64.2059 133.029C64.5742 133.029 64.8868 133.308 64.9173 133.665C64.9394 133.923 66.9256 159.563 47.7851 167.906C47.6918 167.946 47.5931 167.967 47.493 167.967Z" fill="white"/>
</g>
<mask id="mask7" mask-type="alpha" maskUnits="userSpaceOnUse" x="30" y="127" width="35" height="41">
<path fill-rule="evenodd" clip-rule="evenodd" d="M30 127.003H64.9856V167.927H30V127.003Z" fill="white"/>
</mask>
<g mask="url(#mask7)">
<path fill-rule="evenodd" clip-rule="evenodd" d="M47.1997 167.866C28.0601 159.528 30.0462 133.903 30.0683 133.646C30.0989 133.289 30.4115 133.009 30.7797 133.009C41.4254 133.009 46.9089 127.278 46.9632 127.22C47.0911 127.082 47.284 127.003 47.493 127.003C47.7016 127.003 47.8948 127.082 48.0219 127.22C48.077 127.278 53.5681 133.009 64.2059 133.009C64.5742 133.009 64.8868 133.289 64.9173 133.646C64.9394 133.903 66.9256 159.528 47.7851 167.866C47.6918 167.906 47.5931 167.927 47.493 167.927C47.3926 167.927 47.2941 167.906 47.1997 167.866Z" fill="url(#paint2_linear)"/>
</g>
<path fill-rule="evenodd" clip-rule="evenodd" d="M47.1366 164.273C34.3809 157.881 33.0282 141.791 32.9805 135.844C39.9655 135.29 44.6993 132.554 47.1388 130.727C49.5815 132.556 54.3164 135.29 61.2952 135.844C61.2472 141.78 59.8956 157.866 47.1366 164.273Z" fill="#FFCE0E"/>
<path fill-rule="evenodd" clip-rule="evenodd" d="M47.8828 134.455V160.545C56.4435 155.356 58.5871 144.927 59.0597 138.496C54.2999 137.692 50.5889 136.068 47.8842 134.455C47.8842 134.455 47.8831 134.455 47.8828 134.455Z" fill="#FFDB4F"/>
<defs>
<linearGradient id="paint0_linear" x1="112" y1="127.003" x2="112" y2="167.927" gradientUnits="userSpaceOnUse">
<stop stop-color="white"/>
<stop offset="1" stop-color="white"/>
</linearGradient>
<linearGradient id="paint1_linear" x1="71" y1="127.003" x2="71" y2="167.927" gradientUnits="userSpaceOnUse">
<stop stop-color="white"/>
<stop offset="1" stop-color="white"/>
</linearGradient>
<linearGradient id="paint2_linear" x1="30" y1="127.003" x2="30" y2="167.927" gradientUnits="userSpaceOnUse">
<stop stop-color="white"/>
<stop offset="1" stop-color="white"/>
</linearGradient>
</defs>
</svg>
