<svg width="16" height="30" viewBox="0 0 16 30" fill="none" xmlns="http://www.w3.org/2000/svg">
<path fill-rule="evenodd" clip-rule="evenodd" d="M2.16016 23.8573C1.4698 23.8573 0.910156 23.2976 0.910156 22.6073C0.910156 22.4905 0.926516 22.3743 0.958757 22.2621L4.42309 10.2041C4.57701 9.66834 5.06707 9.29926 5.62449 9.29926H10.3751C10.9326 9.29926 11.4226 9.66834 11.5765 10.2041L15.0409 22.2621C15.2315 22.9256 14.8482 23.6181 14.1846 23.8087C14.0724 23.8409 13.9562 23.8573 13.8395 23.8573H11.8763V28.1318C11.8763 28.8222 11.3167 29.3818 10.6263 29.3818H5.49818C4.80783 29.3818 4.24818 28.8222 4.24818 28.1318V23.8573H2.16016ZM5.74987 10.0493C5.52691 10.0493 5.20549 10.1969 5.14393 10.4112L1.6796 22.4692C1.6667 22.5141 1.66016 22.5606 1.66016 22.6073C1.66016 22.8834 1.88401 23.1073 2.16016 23.1073H4.99818H11.1124V23.8687H4.99818V28.1318C4.99818 28.408 5.22204 28.6318 5.49818 28.6318H10.6263C10.9025 28.6318 11.1263 28.408 11.1263 28.1318V23.1073H13.8395C13.8862 23.1073 13.9327 23.1007 13.9775 23.0879C14.243 23.0116 14.3963 22.7346 14.32 22.4692L10.8557 10.4112C10.7941 10.1969 10.5981 10.0493 10.3751 10.0493H5.74987ZM8.03442 8.38184C5.96372 8.38184 4.28516 6.70286 4.28516 4.63184C4.28516 2.56081 5.96372 0.881836 8.03442 0.881836C10.1051 0.881836 11.7837 2.56081 11.7837 4.63184C11.7837 6.70286 10.1051 8.38184 8.03442 8.38184ZM8.03442 7.63184C9.69087 7.63184 11.0337 6.28869 11.0337 4.63184C11.0337 2.97498 9.69087 1.63184 8.03442 1.63184C6.37797 1.63184 5.03516 2.97498 5.03516 4.63184C5.03516 6.28869 6.37797 7.63184 8.03442 7.63184Z" fill="#056DAE"/>
</svg>
