<svg width="15" height="30" viewBox="0 0 15 30" fill="none" xmlns="http://www.w3.org/2000/svg">
<path fill-rule="evenodd" clip-rule="evenodd" d="M1.25 23.8573C0.559644 23.8573 0 23.2976 0 22.6073C0 22.4905 0.0163594 22.3743 0.0486011 22.2621L3.51293 10.2041C3.66685 9.66833 4.15691 9.29925 4.71433 9.29925H9.46499C10.0224 9.29925 10.5125 9.66833 10.6664 10.2041L14.1307 22.2621C14.3214 22.9256 13.938 23.6181 13.2745 23.8087C13.1623 23.8409 13.0461 23.8573 12.9293 23.8573H10.9662V28.1318C10.9662 28.8222 10.4065 29.3818 9.71616 29.3818H4.58803C3.89767 29.3818 3.33803 28.8222 3.33803 28.1318V23.8573H1.25ZM4.83972 10.0492C4.61675 10.0492 4.29534 10.1969 4.23377 10.4112L0.76944 22.4692C0.756544 22.5141 0.75 22.5606 0.75 22.6073C0.75 22.8834 0.973858 23.1073 1.25 23.1073H4.08803H10.2022V23.8687H4.08803V28.1318C4.08803 28.408 4.31188 28.6318 4.58803 28.6318H9.71616C9.9923 28.6318 10.2162 28.408 10.2162 28.1318V23.1073H12.9293C12.976 23.1073 13.0225 23.1007 13.0674 23.0878C13.3328 23.0116 13.4861 22.7346 13.4099 22.4692L9.94555 10.4112C9.88398 10.1969 9.68796 10.0492 9.46499 10.0492H4.83972ZM7.12427 8.38184C5.05356 8.38184 3.375 6.70286 3.375 4.63184C3.375 2.56081 5.05356 0.881836 7.12427 0.881836C9.19497 0.881836 10.8735 2.56081 10.8735 4.63184C10.8735 6.70286 9.19497 8.38184 7.12427 8.38184ZM7.12427 7.63184C8.78072 7.63184 10.1235 6.28869 10.1235 4.63184C10.1235 2.97498 8.78072 1.63184 7.12427 1.63184C5.46782 1.63184 4.125 2.97498 4.125 4.63184C4.125 6.28869 5.46782 7.63184 7.12427 7.63184Z" fill="#5C5F66"/>
</svg>
